<svg width="34" height="20" viewBox="0 0 34 20" fill="none" xmlns="http://www.w3.org/2000/svg">
<g filter="url(#filter0_d_1386_32959)">
<path d="M6.38186 9.95645C8.2386 10.3593 9.57259 10.8312 10.3842 11.3722C11.1957 11.9016 11.6014 12.6038 11.6014 13.4785C11.6014 14.0196 11.402 14.5086 11.0031 14.9461C10.6181 15.3718 10.0817 15.7057 9.3939 15.9474C8.72008 16.1891 7.96342 16.31 7.12456 16.31C6.02416 16.31 4.98597 16.0856 4.00936 15.6367C3.03274 15.1878 2.22816 14.5662 1.5956 13.772V16.0856H0.956055V12.4772L1.1211 12.4599C1.86379 13.5417 2.73726 14.3649 3.74116 14.9288C4.75904 15.4927 5.88673 15.7748 7.12456 15.7748C8.21099 15.7748 9.11206 15.5676 9.82714 15.1532C10.5562 14.7275 10.9206 14.1691 10.9206 13.4785C10.9206 12.7765 10.5698 12.1951 9.8684 11.7348C9.16697 11.2628 7.99802 10.86 6.36123 10.5262C2.8677 9.82409 1.1211 8.59251 1.1211 6.83147C1.1211 6.26749 1.29312 5.77254 1.63686 5.34668C1.99456 4.92081 2.48271 4.59278 3.10162 4.36257C3.72053 4.12085 4.42197 4 5.20592 4C6.29235 4 7.26897 4.21294 8.13545 4.63881C9.00193 5.05317 9.71701 5.65745 10.281 6.45164V4.24171H10.9206V7.85011L10.7555 7.86738C10.0128 6.70485 9.20124 5.85886 8.32112 5.32941C7.45464 4.79996 6.41614 4.53522 5.20592 4.53522C4.21566 4.53522 3.39743 4.73663 2.7509 5.1395C2.11834 5.54236 1.8019 6.08907 1.8019 6.77968C1.8019 7.51631 2.17325 8.14362 2.91594 8.66157C3.67229 9.17952 4.82759 9.61115 6.38186 9.95645ZM23.3985 10.0082C24.6223 10.1464 25.5783 10.4629 26.2661 10.9578C26.9536 11.4412 27.2976 12.1203 27.2976 12.9951C27.2976 14.0079 26.8438 14.7793 25.936 15.3086C25.0419 15.8266 23.7835 16.0856 22.1607 16.0856H14.0529V15.5503H17.1268V4.77693H14.0529V4.24171H21.9956C23.3709 4.24171 24.4436 4.50645 25.214 5.03591C25.9979 5.56536 26.3899 6.27899 26.3899 7.17677C26.3899 7.90191 26.1353 8.51195 25.6266 9.00687C25.1314 9.5018 24.3887 9.8356 23.3985 10.0082ZM17.8076 4.77693V9.74927H21.8306C23.0132 9.74927 23.9555 9.53059 24.6569 9.0932C25.3584 8.64431 25.7091 8.0055 25.7091 7.17677C25.7091 6.37108 25.365 5.77254 24.6776 5.38121C23.9898 4.97834 23.0684 4.77693 21.9131 4.77693H17.8076ZM21.9956 15.5503C23.4534 15.5503 24.5881 15.3432 25.3996 14.9288C26.2109 14.5144 26.6168 13.8642 26.6168 12.9778C26.6168 12.057 26.163 11.3837 25.2552 10.9578C24.3475 10.532 23.1576 10.3075 21.6862 10.2845L17.8076 10.2672V15.5503H21.9956Z" fill="#A36EAD"/>
<path d="M6.38186 9.95645C8.2386 10.3593 9.57259 10.8312 10.3842 11.3722C11.1957 11.9016 11.6014 12.6038 11.6014 13.4785C11.6014 14.0196 11.402 14.5086 11.0031 14.9461C10.6181 15.3718 10.0817 15.7057 9.3939 15.9474C8.72008 16.1891 7.96342 16.31 7.12456 16.31C6.02416 16.31 4.98597 16.0856 4.00936 15.6367C3.03274 15.1878 2.22816 14.5662 1.5956 13.772V16.0856H0.956055V12.4772L1.1211 12.4599C1.86379 13.5417 2.73726 14.3649 3.74116 14.9288C4.75904 15.4927 5.88673 15.7748 7.12456 15.7748C8.21099 15.7748 9.11206 15.5676 9.82714 15.1532C10.5562 14.7275 10.9206 14.1691 10.9206 13.4785C10.9206 12.7765 10.5698 12.1951 9.8684 11.7348C9.16697 11.2628 7.99802 10.86 6.36123 10.5262C2.8677 9.82409 1.1211 8.59251 1.1211 6.83147C1.1211 6.26749 1.29312 5.77254 1.63686 5.34668C1.99456 4.92081 2.48271 4.59278 3.10162 4.36257C3.72053 4.12085 4.42197 4 5.20592 4C6.29235 4 7.26897 4.21294 8.13545 4.63881C9.00193 5.05317 9.71701 5.65745 10.281 6.45164V4.24171H10.9206V7.85011L10.7555 7.86738C10.0128 6.70485 9.20124 5.85886 8.32112 5.32941C7.45464 4.79996 6.41614 4.53522 5.20592 4.53522C4.21566 4.53522 3.39743 4.73663 2.7509 5.1395C2.11834 5.54236 1.8019 6.08907 1.8019 6.77968C1.8019 7.51631 2.17325 8.14362 2.91594 8.66157C3.67229 9.17952 4.82759 9.61115 6.38186 9.95645ZM23.3985 10.0082C24.6223 10.1464 25.5783 10.4629 26.2661 10.9578C26.9536 11.4412 27.2976 12.1203 27.2976 12.9951C27.2976 14.0079 26.8438 14.7793 25.936 15.3086C25.0419 15.8266 23.7835 16.0856 22.1607 16.0856H14.0529V15.5503H17.1268V4.77693H14.0529V4.24171H21.9956C23.3709 4.24171 24.4436 4.50645 25.214 5.03591C25.9979 5.56536 26.3899 6.27899 26.3899 7.17677C26.3899 7.90191 26.1353 8.51195 25.6266 9.00687C25.1314 9.5018 24.3887 9.8356 23.3985 10.0082ZM17.8076 4.77693V9.74927H21.8306C23.0132 9.74927 23.9555 9.53059 24.6569 9.0932C25.3584 8.64431 25.7091 8.0055 25.7091 7.17677C25.7091 6.37108 25.365 5.77254 24.6776 5.38121C23.9898 4.97834 23.0684 4.77693 21.9131 4.77693H17.8076ZM21.9956 15.5503C23.4534 15.5503 24.5881 15.3432 25.3996 14.9288C26.2109 14.5144 26.6168 13.8642 26.6168 12.9778C26.6168 12.057 26.163 11.3837 25.2552 10.9578C24.3475 10.532 23.1576 10.3075 21.6862 10.2845L17.8076 10.2672V15.5503H21.9956Z" stroke="#A36EAD"/>
</g>
<defs>
<filter id="filter0_d_1386_32959" x="0.456055" y="0.5" width="33.3416" height="19.3105" filterUnits="userSpaceOnUse" color-interpolation-filters="sRGB">
<feFlood flood-opacity="0" result="BackgroundImageFix"/>
<feColorMatrix in="SourceAlpha" type="matrix" values="0 0 0 0 0 0 0 0 0 0 0 0 0 0 0 0 0 0 127 0" result="hardAlpha"/>
<feOffset dx="3"/>
<feGaussianBlur stdDeviation="1.5"/>
<feComposite in2="hardAlpha" operator="out"/>
<feColorMatrix type="matrix" values="0 0 0 0 0 0 0 0 0 0 0 0 0 0 0 0 0 0 0.25 0"/>
<feBlend mode="normal" in2="BackgroundImageFix" result="effect1_dropShadow_1386_32959"/>
<feBlend mode="normal" in="SourceGraphic" in2="effect1_dropShadow_1386_32959" result="shape"/>
</filter>
</defs>
</svg>
