<svg width="55" height="26" viewBox="0 0 55 26" fill="none" xmlns="http://www.w3.org/2000/svg">
<path fill-rule="evenodd" clip-rule="evenodd" d="M18.3284 4.72472C21.4488 2.86102 26.2333 1.27174 31.6835 0.494245C41.5107 -0.923536 49.7816 0.81439 50.1477 4.35884C50.4306 7.0229 46.1786 9.94993 39.8797 11.8479C44.7724 9.89276 47.8762 7.34304 47.6015 5.06773C47.1771 1.54615 38.848 0.0140292 28.9959 1.63762C24.9269 2.31221 21.2324 3.40984 18.3284 4.72472Z" fill="black"/>
<path fill-rule="evenodd" clip-rule="evenodd" d="M6.45449 18.2048C5.83042 18.8222 4.9068 19.291 4.18287 19.291C2.37723 19.291 1.66163 17.5531 2.05271 15.0949C2.38555 12.9796 3.53384 10.6815 5.48926 10.6815C6.25479 10.6815 6.92046 11.2303 7.22834 12.0078H7.39476C7.5695 11.5047 7.71927 11.013 7.90233 10.5214C7.2949 10.064 6.39624 9.8125 5.6224 9.8125C3.05955 9.8125 0.679758 11.5276 0.0806505 15.3007C-0.385322 18.262 1.2123 20.16 3.72522 20.16C4.51571 20.16 5.37277 19.9885 6.14662 19.5426L6.60427 18.2963L6.45449 18.2048Z" fill="black"/>
<path fill-rule="evenodd" clip-rule="evenodd" d="M6.92871 19.967C7.2033 19.9327 7.47789 19.8984 7.75248 19.8984C8.01875 19.8984 8.28502 19.9442 8.55129 19.967L8.96734 17.3601C9.04223 16.8914 9.13376 16.1024 9.30018 15.6793C9.54149 15.062 10.0158 14.7303 10.5317 14.7303C10.7231 14.7303 10.9727 14.7875 11.0975 14.9247L11.2223 14.8103C11.2889 14.1929 11.422 13.5298 11.5884 12.8438C10.4401 12.8438 9.78279 13.7128 9.37507 14.7646L9.65798 12.981C9.38339 13.0039 9.1088 13.0496 8.83421 13.0496C8.56794 13.0496 8.30167 13.0039 8.0354 12.981L6.92871 19.967Z" fill="black"/>
<path fill-rule="evenodd" clip-rule="evenodd" d="M12.9614 15.7822C13.1029 15.0162 13.4274 13.484 14.2845 13.484C14.9917 13.484 14.817 15.0162 14.7005 15.7822H12.9614ZM16.2066 16.4797C16.6642 14.4216 16.2149 12.8438 14.376 12.8438C12.6702 12.8438 11.4553 14.2844 11.1391 16.3082C10.7647 18.6635 11.5385 20.1042 13.4856 20.1042C14.0598 20.1042 14.7338 19.8641 15.2663 19.4524L15.6491 18.6406L15.5243 18.5149C15.0999 18.8922 14.5341 19.1666 14.0515 19.1666C12.8033 19.1666 12.5787 17.9661 12.8449 16.4797H16.2066Z" fill="black"/>
<path fill-rule="evenodd" clip-rule="evenodd" d="M23.3626 9C23.088 9.0343 22.8134 9.08004 22.5388 9.08004C22.2726 9.08004 22.0063 9.0343 21.74 9L20.9662 13.8822C20.7415 13.1276 20.2256 12.8417 19.535 12.8417C17.9873 12.8417 16.9888 14.6481 16.6975 16.4775C16.4063 18.3413 16.6975 20.1021 18.4366 20.1021C19.2105 20.1021 19.8845 19.5533 20.2672 18.7071L20.0675 19.9764C20.3255 19.9421 20.6001 19.9077 20.8663 19.9077C21.1243 19.9077 21.3739 19.9535 21.6318 19.9764L23.3626 9ZM19.9926 13.7679C20.9329 13.7679 20.7581 15.5172 20.625 16.3519C20.4836 17.2666 20.0509 19.1531 19.044 19.1531C18.0955 19.1531 18.2952 17.3466 18.4283 16.512C18.5781 15.6087 18.9858 13.7679 19.9926 13.7679Z" fill="black"/>
<path fill-rule="evenodd" clip-rule="evenodd" d="M22.5306 19.9656C22.8052 19.9313 23.0798 19.897 23.3544 19.897C23.6206 19.897 23.8869 19.9428 24.1532 19.9656L25.2598 12.9682C24.9853 12.991 24.7107 13.0368 24.4361 13.0368C24.1698 13.0368 23.9035 12.991 23.6373 12.9682L22.5306 19.9656ZM23.9451 10.327C23.8453 10.933 24.1781 11.4703 24.6774 11.4703C25.185 11.4703 25.7009 10.9445 25.8007 10.327C25.9006 9.70954 25.5428 9.18359 25.0435 9.18359C24.5359 9.18359 24.0367 9.72098 23.9451 10.327Z" fill="black"/>
<path fill-rule="evenodd" clip-rule="evenodd" d="M28.3052 13.8944H29.3037C29.3204 13.5628 29.362 13.2998 29.4535 12.9683H28.455L28.8544 10.4414C28.2387 10.773 27.6645 11.0817 27.0904 11.3332L26.8324 12.9683H26.0336C26.017 13.2998 25.9754 13.5628 25.8922 13.8944H26.691L26.0835 17.759C25.8672 19.0967 25.9837 20.0915 27.2069 20.0915C27.573 20.0915 28.014 19.9657 28.48 19.7599L28.5715 19.1996C27.4731 19.5312 27.5147 18.9938 27.6727 17.9991L28.3052 13.8944Z" fill="black"/>
<path fill-rule="evenodd" clip-rule="evenodd" d="M39.605 14.4432C39.9794 11.9849 39.3969 8.79492 35.7191 8.79492C32.4989 8.79492 30.2189 11.3561 29.7197 14.5119C29.1538 18.1135 30.7515 20.1829 33.6056 20.1829C36.7758 20.1829 39.1307 17.5418 39.605 14.4432ZM35.4944 9.74392C37.4332 9.74392 37.8326 12.0993 37.5081 14.1459C37.092 16.7757 35.8106 19.2339 33.8219 19.2339C31.8831 19.2339 31.4671 17.0386 31.7916 14.9806C32.3574 11.4132 33.6971 9.74392 35.4944 9.74392Z" fill="black"/>
<path fill-rule="evenodd" clip-rule="evenodd" d="M39.2307 19.9766C39.5302 19.9423 39.8381 19.8966 40.1376 19.8966C40.4372 19.8966 40.7201 19.9423 41.0113 19.9766L41.5855 16.3293C41.7436 15.3231 42.0348 13.4708 43.1665 13.4708C44.0734 13.4708 44.0568 14.5456 43.8238 16.032L43.1997 19.9881C43.4993 19.9538 43.8072 19.9079 44.1067 19.9079C44.4063 19.9079 44.6975 19.9538 44.9887 19.9881L45.721 15.3344C46.0205 13.4251 45.8125 12.1445 44.1816 12.1445C43.3828 12.1445 42.6173 12.7162 41.9849 13.4594L42.1679 12.2817C41.8767 12.316 41.5855 12.3618 41.3026 12.3618C41.003 12.3618 40.7284 12.316 40.4538 12.2817L39.2307 19.9766Z" fill="black"/>
<path fill-rule="evenodd" clip-rule="evenodd" d="M48.2838 15.3722C48.4419 14.5261 48.7997 12.8452 49.7399 12.8452C50.5138 12.8452 50.3308 14.5261 50.1892 15.3722H48.2838ZM51.8534 16.1268C52.3527 13.8629 51.8618 12.125 49.8398 12.125C47.9676 12.125 46.628 13.7143 46.2784 15.9323C45.8707 18.5164 46.7112 20.1172 48.8579 20.1172C49.4903 20.1172 50.2309 19.8428 50.8216 19.3967L51.2461 18.5049L51.1129 18.3564C50.6469 18.7679 50.0145 19.0766 49.4903 19.0766C48.1173 19.0766 47.8677 17.7617 48.1589 16.1154H51.8534V16.1268Z" fill="black"/>
<path fill-rule="evenodd" clip-rule="evenodd" d="M12.8616 25.7055H13.4524C13.7353 25.7171 14.0848 25.7171 14.3594 25.4769C14.634 25.2482 14.8171 24.9167 14.867 24.505C14.9585 23.8418 14.5508 23.636 14.2346 23.6132C14.6174 23.4875 14.9585 23.1445 15.0334 22.5956C15.1166 22.0124 14.8254 21.8066 14.2179 21.8066H13.4025L12.8616 25.7055ZM13.7437 22.0353H14.0515C14.4842 22.0353 14.7338 22.184 14.659 22.7328C14.6174 23.0415 14.4593 23.293 14.2429 23.4188C13.9933 23.556 13.7686 23.5447 13.5273 23.5447L13.7437 22.0353ZM13.5023 23.7504H13.7353C14.2429 23.7504 14.5674 23.9449 14.4759 24.6193C14.401 25.1339 14.0598 25.4997 13.6521 25.4997H13.261L13.5023 23.7504Z" fill="black"/>
<path fill-rule="evenodd" clip-rule="evenodd" d="M22.1478 21.7402H22.048L20.1841 25.7306C20.2257 25.7306 20.2756 25.7193 20.3339 25.7193C20.3838 25.7193 20.4254 25.7306 20.4836 25.7306C20.675 25.1932 20.8997 24.6902 21.116 24.187H22.1728C22.2643 24.713 22.3392 25.2619 22.3891 25.7306C22.4557 25.7306 22.5306 25.7193 22.6138 25.7193C22.6887 25.7193 22.7469 25.7306 22.8301 25.7306L22.1478 21.7402ZM22.1478 23.9471H21.2325L21.8899 22.4834L22.1478 23.9471Z" fill="black"/>
<path fill-rule="evenodd" clip-rule="evenodd" d="M39.1643 21.8184C39.106 21.8184 39.0478 21.8299 38.9978 21.8299C38.9396 21.8299 38.8897 21.8184 38.8314 21.8184L37.6082 23.2704C37.5417 23.3505 37.4335 23.4648 37.3503 23.5563C37.3004 23.6021 37.242 23.6249 37.242 23.5906L37.4917 21.8299C37.4252 21.8299 37.3668 21.8412 37.3087 21.8412C37.242 21.8412 37.1839 21.8299 37.1256 21.8299L36.5764 25.7287C36.6347 25.7287 36.7012 25.7174 36.7595 25.7174C36.8177 25.7174 36.876 25.7287 36.9426 25.7287L37.2255 23.7392C37.2255 23.7165 37.2754 23.7278 37.292 23.7507L37.9909 25.2029C38.0741 25.3628 38.1408 25.5343 38.2073 25.7174C38.2821 25.7174 38.3654 25.7058 38.4403 25.7058C38.5069 25.7058 38.5818 25.7174 38.665 25.7174V25.6944L38.407 25.1227C38.1491 24.5968 37.8745 24.0822 37.6165 23.5563L38.0409 23.0646L39.1643 21.8184Z" fill="black"/>
<path fill-rule="evenodd" clip-rule="evenodd" d="M31.3508 21.8184C31.3092 21.8184 31.2676 21.8299 31.2344 21.8299C31.1928 21.8299 31.1594 21.8184 31.1178 21.8184L30.7018 24.7568H30.6602L29.1042 21.8184H28.9377L28.3885 25.7174C28.4302 25.7174 28.4634 25.7058 28.505 25.7058C28.5383 25.7058 28.5799 25.7174 28.6215 25.7174L29.0542 22.6416H29.0958L30.5021 25.3744C30.5687 25.5115 30.6352 25.6372 30.6685 25.7174H30.7933L31.3508 21.8184Z" fill="black"/>
<path fill-rule="evenodd" clip-rule="evenodd" d="M52.1364 10.3051C52.1364 9.52758 52.594 8.91016 53.1515 8.91016C53.7173 8.91016 54.1667 9.53901 54.1667 10.3051C54.1667 11.0826 53.709 11.7 53.1515 11.7C52.594 11.7114 52.1364 11.0826 52.1364 10.3051ZM52.2862 10.3051C52.2862 10.9682 52.6772 11.5056 53.1599 11.5056C53.6425 11.5056 54.0336 10.9682 54.0336 10.3051C54.0336 9.64191 53.6425 9.10453 53.1599 9.10453C52.6772 9.10453 52.2862 9.64191 52.2862 10.3051Z" fill="black"/>
<path fill-rule="evenodd" clip-rule="evenodd" d="M53.0349 9.62996C53.1431 9.62996 53.2762 9.60709 53.3011 9.80147C53.3095 9.8472 53.3095 9.8815 53.3095 9.9158C53.3095 10.1445 53.2179 10.2588 53.0349 10.2359V9.62996ZM52.7687 11.0706C52.8103 11.0592 52.8519 11.0592 52.9017 11.0592C52.9517 11.0592 52.9933 11.0706 53.0349 11.0706V10.3389H53.0433C53.0849 10.4303 53.1347 10.5332 53.1598 10.5904L53.3678 11.0706C53.4259 11.0592 53.476 11.0592 53.5258 11.0592C53.5841 11.0592 53.634 11.0706 53.6922 11.0706L53.6174 10.9334C53.5092 10.7162 53.401 10.5104 53.3095 10.2931C53.476 10.2474 53.5841 10.1102 53.5841 9.89294C53.5841 9.73287 53.5342 9.6414 53.4259 9.56136C53.3511 9.51562 53.2179 9.51562 53.1431 9.51562H52.7687V11.0706Z" fill="black"/>
</svg>
