<svg width="677" height="327" viewBox="0 0 677 327" fill="none" xmlns="http://www.w3.org/2000/svg">
<g filter="url(#filter0_i_748_15664)">
<path d="M336.302 132.329C311.952 142.636 311.878 177.119 336.183 187.532L633.613 314.947C653.383 323.416 675.38 308.943 675.426 287.435L675.971 33.8839C676.017 12.3762 654.082 -2.19152 634.276 6.19271L336.302 132.329Z" fill="#4D4C7D"/>
</g>
<g filter="url(#filter1_i_748_15664)">
<path d="M345.553 129.329C369.903 139.636 369.977 174.119 345.671 184.532L48.2418 311.947C28.4718 320.416 6.47485 305.943 6.42863 284.435L5.88381 30.8839C5.83759 9.37616 27.7722 -5.19152 47.5784 3.19271L345.553 129.329Z" fill="#4D4C7D"/>
</g>
<path d="M324.544 104.062C333.259 99.3817 343.741 99.3817 352.456 104.062L660.56 269.51C687.577 284.018 677.27 325 646.604 325H30.3959C-0.269669 325 -10.577 284.018 16.4398 269.51L324.544 104.062Z" fill="#4D4C7D" stroke="#FF9AB3"/>
<path d="M23 5H661L336.967 218L23 5Z" fill="#4D4C7D" stroke="#FF9AB3"/>
<defs>
<filter id="filter0_i_748_15664" x="317.997" y="3.78711" width="357.974" height="317.615" filterUnits="userSpaceOnUse" color-interpolation-filters="sRGB">
<feFlood flood-opacity="0" result="BackgroundImageFix"/>
<feBlend mode="normal" in="SourceGraphic" in2="BackgroundImageFix" result="shape"/>
<feColorMatrix in="SourceAlpha" type="matrix" values="0 0 0 0 0 0 0 0 0 0 0 0 0 0 0 0 0 0 127 0" result="hardAlpha"/>
<feOffset dy="4"/>
<feGaussianBlur stdDeviation="2"/>
<feComposite in2="hardAlpha" operator="arithmetic" k2="-1" k3="1"/>
<feColorMatrix type="matrix" values="0 0 0 0 1 0 0 0 0 0.603922 0 0 0 0 0.701961 0 0 0 1 0"/>
<feBlend mode="normal" in2="shape" result="effect1_innerShadow_748_15664"/>
</filter>
<filter id="filter1_i_748_15664" x="5.88379" y="0.787109" width="357.974" height="317.615" filterUnits="userSpaceOnUse" color-interpolation-filters="sRGB">
<feFlood flood-opacity="0" result="BackgroundImageFix"/>
<feBlend mode="normal" in="SourceGraphic" in2="BackgroundImageFix" result="shape"/>
<feColorMatrix in="SourceAlpha" type="matrix" values="0 0 0 0 0 0 0 0 0 0 0 0 0 0 0 0 0 0 127 0" result="hardAlpha"/>
<feOffset dy="4"/>
<feGaussianBlur stdDeviation="2"/>
<feComposite in2="hardAlpha" operator="arithmetic" k2="-1" k3="1"/>
<feColorMatrix type="matrix" values="0 0 0 0 1 0 0 0 0 0.603922 0 0 0 0 0.701961 0 0 0 1 0"/>
<feBlend mode="normal" in2="shape" result="effect1_innerShadow_748_15664"/>
</filter>
</defs>
</svg>
