<svg width="914" height="402" viewBox="0 0 914 402" fill="none" xmlns="http://www.w3.org/2000/svg">
<g filter="url(#filter0_i_1456_13959)">
<path d="M466.301 174.329C441.951 184.636 441.877 219.119 466.182 229.532L763.612 356.947C783.382 365.416 805.379 350.943 805.425 329.435L805.97 75.8839C806.016 54.3762 784.081 39.8085 764.275 48.1927L466.301 174.329Z" fill="#9E8BB9"/>
</g>
<g filter="url(#filter1_i_1456_13959)">
<path d="M475.553 171.329C499.903 181.636 499.977 216.119 475.671 226.532L178.242 353.947C158.472 362.416 136.475 347.943 136.429 326.435L135.884 72.8839C135.838 51.3762 157.772 36.8085 177.578 45.1927L475.553 171.329Z" fill="#9E8BB9"/>
</g>
<defs>
<filter id="filter0_i_1456_13959" x="447.996" y="45.7876" width="357.974" height="317.615" filterUnits="userSpaceOnUse" color-interpolation-filters="sRGB">
<feFlood flood-opacity="0" result="BackgroundImageFix"/>
<feBlend mode="normal" in="SourceGraphic" in2="BackgroundImageFix" result="shape"/>
<feColorMatrix in="SourceAlpha" type="matrix" values="0 0 0 0 0 0 0 0 0 0 0 0 0 0 0 0 0 0 127 0" result="hardAlpha"/>
<feOffset dy="4"/>
<feGaussianBlur stdDeviation="2"/>
<feComposite in2="hardAlpha" operator="arithmetic" k2="-1" k3="1"/>
<feColorMatrix type="matrix" values="0 0 0 0 1 0 0 0 0 0.603922 0 0 0 0 0.701961 0 0 0 1 0"/>
<feBlend mode="normal" in2="shape" result="effect1_innerShadow_1456_13959"/>
</filter>
<filter id="filter1_i_1456_13959" x="135.884" y="42.7876" width="357.974" height="317.615" filterUnits="userSpaceOnUse" color-interpolation-filters="sRGB">
<feFlood flood-opacity="0" result="BackgroundImageFix"/>
<feBlend mode="normal" in="SourceGraphic" in2="BackgroundImageFix" result="shape"/>
<feColorMatrix in="SourceAlpha" type="matrix" values="0 0 0 0 0 0 0 0 0 0 0 0 0 0 0 0 0 0 127 0" result="hardAlpha"/>
<feOffset dy="4"/>
<feGaussianBlur stdDeviation="2"/>
<feComposite in2="hardAlpha" operator="arithmetic" k2="-1" k3="1"/>
<feColorMatrix type="matrix" values="0 0 0 0 1 0 0 0 0 0.603922 0 0 0 0 0.701961 0 0 0 1 0"/>
<feBlend mode="normal" in2="shape" result="effect1_innerShadow_1456_13959"/>
</filter>
</defs>
</svg>
