<svg width="32" height="32" viewBox="0 0 32 32" fill="none" xmlns="http://www.w3.org/2000/svg">
<path d="M10.0001 12.7857V23.5M22.8573 23.5V18.1429C22.8573 17.0062 22.4058 15.9161 21.602 15.1124C20.7983 14.3087 19.7082 13.8571 18.5716 13.8571C17.4349 13.8571 16.3448 14.3087 15.5411 15.1124C14.7374 15.9161 14.2859 17.0062 14.2859 18.1429V23.5V12.7857M8.92871 9.57143H11.0716M3.57157 1H29.2859C29.8542 1 30.3992 1.22576 30.8011 1.62763C31.2029 2.02949 31.4287 2.57454 31.4287 3.14286V28.8571C31.4287 29.4255 31.2029 29.9705 30.8011 30.3724C30.3992 30.7742 29.8542 31 29.2859 31H3.57157C3.00325 31 2.4582 30.7742 2.05634 30.3724C1.65448 29.9705 1.42871 29.4255 1.42871 28.8571V3.14286C1.42871 2.57454 1.65448 2.02949 2.05634 1.62763C2.4582 1.22576 3.00325 1 3.57157 1Z" stroke="black"/>
</svg>
