<svg width="73" height="60" viewBox="0 0 73 60" fill="none" xmlns="http://www.w3.org/2000/svg">
<path d="M55.5304 38.9503C53.4739 45.0596 49.3121 50.2386 43.7884 53.5616C38.2647 56.8844 31.7394 58.1349 25.3787 57.0894C19.0179 56.0438 13.2363 52.7702 9.06703 47.8539C4.89779 42.9377 2.6127 36.699 2.62014 30.2528C2.62757 23.8066 4.92707 17.5732 9.10766 12.6665C13.2882 7.75987 19.0774 4.49974 25.4406 3.46884C31.8037 2.43793 38.3261 3.70343 43.8421 7.03916C49.3581 10.3749 53.5078 15.5634 55.5501 21.6775" stroke="white" stroke-width="3"/>
<path d="M40.3819 30.4565C42.2386 30.8593 43.5726 31.3312 44.3842 31.8722C45.1957 32.4016 45.6014 33.1038 45.6014 33.9785C45.6014 34.5196 45.402 35.0086 45.0031 35.4461C44.6181 35.8718 44.0817 36.2057 43.3939 36.4474C42.7201 36.6891 41.9634 36.81 41.1246 36.81C40.0242 36.81 38.986 36.5856 38.0094 36.1367C37.0327 35.6878 36.2282 35.0662 35.5956 34.272V36.5856H34.9561V32.9772L35.1211 32.9599C35.8638 34.0417 36.7373 34.8649 37.7412 35.4288C38.759 35.9927 39.8867 36.2748 41.1246 36.2748C42.211 36.2748 43.1121 36.0676 43.8271 35.6532C44.5562 35.2275 44.9206 34.6691 44.9206 33.9785C44.9206 33.2765 44.5698 32.6951 43.8684 32.2348C43.167 31.7628 41.998 31.36 40.3612 31.0262C36.8677 30.3241 35.1211 29.0925 35.1211 27.3315C35.1211 26.7675 35.2931 26.2725 35.6369 25.8467C35.9946 25.4208 36.4827 25.0928 37.1016 24.8626C37.7205 24.6209 38.422 24.5 39.2059 24.5C40.2924 24.5 41.269 24.7129 42.1354 25.1388C43.0019 25.5532 43.717 26.1574 44.281 26.9516V24.7417H44.9206V28.3501L44.7555 28.3674C44.0128 27.2049 43.2012 26.3589 42.3211 25.8294C41.4546 25.3 40.4161 25.0352 39.2059 25.0352C38.2157 25.0352 37.3974 25.2366 36.7509 25.6395C36.1183 26.0424 35.8019 26.5891 35.8019 27.2797C35.8019 28.0163 36.1732 28.6436 36.9159 29.1616C37.6723 29.6795 38.8276 30.1112 40.3819 30.4565ZM57.3985 30.5082C58.6223 30.6464 59.5783 30.9629 60.2661 31.4578C60.9536 31.9412 61.2976 32.6203 61.2976 33.4951C61.2976 34.5079 60.8438 35.2793 59.936 35.8086C59.0419 36.3266 57.7835 36.5856 56.1607 36.5856H48.0529V36.0503H51.1268V25.2769H48.0529V24.7417H55.9956C57.3709 24.7417 58.4436 25.0065 59.214 25.5359C59.9979 26.0654 60.3899 26.779 60.3899 27.6768C60.3899 28.4019 60.1353 29.0119 59.6266 29.5069C59.1314 30.0018 58.3887 30.3356 57.3985 30.5082ZM51.8076 25.2769V30.2493H55.8306C57.0132 30.2493 57.9555 30.0306 58.6569 29.5932C59.3584 29.1443 59.7091 28.5055 59.7091 27.6768C59.7091 26.8711 59.365 26.2725 58.6776 25.8812C57.9898 25.4783 57.0684 25.2769 55.9131 25.2769H51.8076ZM55.9956 36.0503C57.4534 36.0503 58.5881 35.8432 59.3996 35.4288C60.2109 35.0144 60.6168 34.3642 60.6168 33.4778C60.6168 32.557 60.163 31.8837 59.2552 31.4578C58.3475 31.032 57.1576 30.8075 55.6862 30.7845L51.8076 30.7672V36.0503H55.9956Z" fill="white"/>
</svg>
