<svg width="73" height="59" viewBox="0 0 73 59" fill="none" xmlns="http://www.w3.org/2000/svg">
<path d="M55.5302 38.4512C53.4737 44.5605 49.312 49.7394 43.7883 53.0625C38.2645 56.3853 31.7393 57.6358 25.3785 56.5902C19.0178 55.5447 13.2362 52.271 9.06691 47.3548C4.89767 42.4385 2.61257 36.1999 2.62001 29.7536C2.62745 23.3075 4.92695 17.0741 9.10754 12.1674C13.2881 7.26072 19.0773 4.0006 25.4404 2.96969C31.8036 1.93879 38.326 3.20428 43.842 6.54002C49.358 9.87572 53.5077 15.0643 55.55 21.1783" stroke="black" stroke-width="3"/>
<path d="M40.4258 29.9565C42.2825 30.3593 43.6165 30.8312 44.4281 31.3722C45.2397 31.9016 45.6453 32.6038 45.6453 33.4785C45.6453 34.0196 45.446 34.5086 45.047 34.9461C44.662 35.3718 44.1256 35.7057 43.4378 35.9474C42.764 36.1891 42.0074 36.31 41.1685 36.31C40.0681 36.31 39.0299 36.0856 38.0533 35.6367C37.0767 35.1878 36.2721 34.5662 35.6395 33.772V36.0856H35V32.4772L35.165 32.4599C35.9077 33.5417 36.7812 34.3649 37.7851 34.9288C38.803 35.4927 39.9307 35.7748 41.1685 35.7748C42.2549 35.7748 43.156 35.5676 43.8711 35.1532C44.6001 34.7275 44.9645 34.1691 44.9645 33.4785C44.9645 32.7765 44.6138 32.1951 43.9123 31.7348C43.2109 31.2628 42.042 30.86 40.4052 30.5262C36.9116 29.8241 35.165 28.5925 35.165 26.8315C35.165 26.2675 35.3371 25.7725 35.6808 25.3467C36.0385 24.9208 36.5267 24.5928 37.1456 24.3626C37.7645 24.1209 38.4659 24 39.2499 24C40.3363 24 41.3129 24.2129 42.1794 24.6388C43.0459 25.0532 43.761 25.6574 44.325 26.4516V24.2417H44.9645V27.8501L44.7995 27.8674C44.0568 26.7049 43.2452 25.8589 42.3651 25.3294C41.4986 24.8 40.4601 24.5352 39.2499 24.5352C38.2596 24.5352 37.4414 24.7366 36.7948 25.1395C36.1623 25.5424 35.8458 26.0891 35.8458 26.7797C35.8458 27.5163 36.2172 28.1436 36.9599 28.6616C37.7162 29.1795 38.8715 29.6112 40.4258 29.9565ZM57.4424 30.0082C58.6663 30.1464 59.6223 30.4629 60.3101 30.9578C60.9975 31.4412 61.3416 32.1203 61.3416 32.9951C61.3416 34.0079 60.8877 34.7793 59.98 35.3086C59.0859 35.8266 57.8274 36.0856 56.2046 36.0856H48.0968V35.5503H51.1708V24.7769H48.0968V24.2417H56.0396C57.4148 24.2417 58.4876 24.5065 59.2579 25.0359C60.0419 25.5654 60.4338 26.279 60.4338 27.1768C60.4338 27.9019 60.1793 28.5119 59.6705 29.0069C59.1754 29.5018 58.4327 29.8356 57.4424 30.0082ZM51.8516 24.7769V29.7493H55.8745C57.0571 29.7493 57.9994 29.5306 58.7009 29.0932C59.4023 28.6443 59.753 28.0055 59.753 27.1768C59.753 26.3711 59.409 25.7725 58.7215 25.3812C58.0337 24.9783 57.1123 24.7769 55.957 24.7769H51.8516ZM56.0396 35.5503C57.4973 35.5503 58.632 35.3432 59.4436 34.9288C60.2548 34.5144 60.6608 33.8642 60.6608 32.9778C60.6608 32.057 60.2069 31.3837 59.2992 30.9578C58.3914 30.532 57.2015 30.3075 55.7301 30.2845L51.8516 30.2672V35.5503H56.0396Z" fill="black"/>
</svg>
