<svg width="76" height="76" viewBox="0 0 76 76" fill="none" xmlns="http://www.w3.org/2000/svg">
<path fill-rule="evenodd" clip-rule="evenodd" d="M30.3456 0.391612C29.0072 0.865875 28.1413 1.43345 27.3472 2.35657C26.487 3.35677 26.0862 4.24465 24.8318 7.92899C23.7049 11.2394 23.6723 11.3009 22.6764 12.0032C22.1204 12.3955 21.1118 13.2129 20.4351 13.8196L19.2047 14.9227L18.4231 14.603C17.4448 14.2033 17.1907 14.2014 17.1907 14.5939C17.1907 14.7647 16.9698 15.0562 16.6996 15.2417C15.5203 16.0521 14.5145 16.6479 14.4431 16.5782C14.4008 16.5366 14.7895 16.0515 15.307 15.4999C16.062 14.6955 16.1661 14.4971 15.8335 14.4971C15.6054 14.4971 15.4795 14.5932 15.5537 14.7107C15.6279 14.8281 15.6004 14.9242 15.4926 14.9242C15.3845 14.9242 15.1833 15.1672 15.0449 15.4642C14.9065 15.7613 14.4481 16.2035 14.0262 16.4471C13.1671 16.943 12.8397 17.7589 13.245 18.3937C13.5707 18.9041 13.6124 18.868 12.2453 19.2624L11.1197 19.5872L11.3124 18.9297C11.4185 18.5682 11.704 18.0653 11.9469 17.8123C12.1899 17.5594 12.3887 17.2801 12.3887 17.1917C12.3887 16.7871 13.6357 15.4958 14.3901 15.1194C15.3406 14.6449 15.5057 14.4038 14.666 14.7162C13.5381 15.1356 13.2609 15.3859 12.2344 16.9109C10.7744 19.0805 10.044 20.5301 10.3592 20.6329C10.8671 20.7986 9.89167 22.4599 8.87758 23.1564C8.15138 23.6552 7.89775 23.9783 7.84776 24.4682C7.79756 24.9619 7.88247 25.1438 8.20093 25.2254C8.49276 25.3001 8.61237 25.2273 8.59469 24.9864C8.57483 24.7186 8.73963 24.6537 9.32132 24.7001C10.3014 24.778 10.3217 24.8154 9.72688 25.4481C9.45011 25.7425 8.92909 26.5435 8.56894 27.2279C7.39965 29.4502 6.94237 30.0852 6.51193 30.0852C5.9728 30.0852 4.96743 28.9106 4.96743 28.2804C4.96743 27.4446 5.22958 26.4564 5.42078 26.5721C5.52097 26.6326 5.43519 26.1745 5.23045 25.5542C5.0244 24.9296 4.86965 23.8378 4.88383 23.1067C4.91745 21.3847 5.44108 20.4757 6.6143 20.1044L7.47757 19.831L6.71362 19.9395C5.00847 20.1817 4.21657 22.1522 4.75658 24.8098C4.95412 25.7818 4.96503 26.415 4.7974 27.1841C4.65465 27.8388 4.64351 28.4256 4.76815 28.7459C5.06413 29.5078 5.04383 29.5431 4.06138 29.9669C2.9794 30.4341 1.65667 31.5625 1.03175 32.5516C0.574469 33.2754 0.076152 35.5028 0.417531 35.2963C0.519028 35.2351 0.601972 34.9472 0.601972 34.6568C0.601972 33.2011 2.25735 31.1181 4.17859 30.1557L5.24529 29.6214L5.70061 30.0669C5.95097 30.3118 6.04003 30.5123 5.8988 30.5123C5.25206 30.5123 2.89013 32.5364 2.03777 33.821C1.80684 34.1687 2.27591 33.8099 3.07981 33.0233C4.62474 31.5119 6.26506 30.2988 6.76382 30.2988C6.9284 30.2988 7.17745 30.1866 7.31758 30.0496C7.8936 29.486 7.80935 30.5159 7.17963 31.7363C6.37093 33.3038 5.35989 34.1958 3.84136 34.6818C2.63715 35.0674 1.03852 35.7907 1.03852 35.95C1.03852 35.9997 1.5543 35.8191 2.18445 35.5481C2.81482 35.2773 3.80076 34.8889 4.37569 34.685C5.84707 34.1631 6.59466 33.4704 7.38808 31.8937C7.99117 30.6953 8.12759 30.552 8.48643 30.7397C9.1072 31.0647 8.98955 31.7696 7.93027 34.0715C7.39899 35.2263 6.89893 36.5216 6.81882 36.95C6.59597 38.1436 7.07355 39.9407 7.92481 41.112C8.3391 41.6821 8.67807 42.0705 8.67807 41.9749C8.67807 41.8794 8.43666 41.4916 8.14156 41.113C7.84645 40.7347 7.45749 39.8701 7.27676 39.1919C6.85811 37.6194 7.06984 36.4373 8.19111 34.0869L9.02033 32.3491L9.48808 33.0856C9.74543 33.4907 10.2664 34.2545 10.6456 34.783C11.2705 35.6536 11.3273 35.8643 11.2504 37.0251C11.1806 38.0789 10.9837 38.6132 10.1401 40.0356C9.57605 40.9866 9.11615 41.8515 9.11811 41.9574C9.12335 42.2288 10.072 40.6907 10.8826 39.0968C11.4722 37.9373 11.5538 37.5795 11.4739 36.5003C11.3809 35.2427 11.3262 35.1338 9.64502 32.8697C8.92538 31.9005 9.01225 31.2793 9.87857 31.1988C10.4729 31.1435 10.5718 31.2298 10.9492 32.1352C11.5023 33.4621 13.2642 35.1007 14.9534 35.8601C16.7777 36.6801 16.6948 36.4689 14.8318 35.5511C13.2334 34.7638 12.0307 33.6269 11.2873 32.2011C10.7665 31.2027 10.9117 30.9485 12.0067 30.9426C12.4276 30.9404 12.6122 31.051 12.6247 31.3131C12.6522 31.8928 13.7689 33.7881 14.1349 33.8765C14.4104 33.9432 14.4075 33.9111 14.1177 33.6754C13.928 33.5212 13.5351 32.7862 13.2446 32.0423L12.7161 30.6897L11.1572 30.8307C9.82423 30.9511 9.468 30.9065 8.70165 30.524C7.58955 29.9691 7.57558 29.6763 8.56959 27.7953C9.62014 25.8073 10.3116 24.9905 10.6606 25.3251C10.8735 25.529 10.8737 25.6488 10.6611 25.8993C10.2031 26.4393 10.4675 27.3686 11.2135 27.8401C11.6248 28.1002 12.0301 28.6278 12.2388 29.1751C12.5943 30.1068 13.6667 31.58 13.9895 31.58C14.0897 31.58 13.8821 31.2197 13.5283 30.7792C12.8593 29.9462 12.0862 28.6009 12.2089 28.4826C12.2477 28.4453 12.7216 28.6225 13.2618 28.8762C14.1238 29.2813 14.2394 29.4162 14.2061 29.9785C14.1443 31.0186 14.3202 31.5217 14.7873 31.6413C15.1411 31.7318 15.2271 31.9336 15.2311 32.681C15.2359 33.6203 15.7538 34.9637 16.4119 35.7439C16.6101 35.9788 16.4735 35.5731 16.1083 34.8426C15.6696 33.9643 15.4445 33.1896 15.4445 32.5569C15.4445 31.6366 15.4799 31.5847 16.3722 31.1975C17.4695 30.7216 17.9198 30.2496 17.7798 29.7218C17.6969 29.4098 17.6731 29.4245 17.6526 29.8008C17.6253 30.2996 16.621 31.0188 15.6054 31.2669C14.7463 31.4766 14.356 31.088 14.5075 30.1738C14.643 29.3579 14.1443 28.5905 13.4788 28.5905C13.0298 28.5905 11.0332 27.576 10.8095 27.2341C10.5786 26.8811 10.6059 26.028 10.8479 26.028C10.961 26.028 11.1149 26.1254 11.1902 26.2446C11.2655 26.3637 11.7324 26.6635 12.2276 26.9108L13.1282 27.3603L13.4993 26.9119C13.8217 26.5226 13.9055 26.5051 14.1384 26.7795C14.5695 27.2877 17.6367 29.0372 17.8599 28.902C17.9721 28.8343 18.0638 28.6571 18.0638 28.5083C18.0638 28.1442 18.9937 27.3093 19.3992 27.3093C19.839 27.3093 21.1196 25.9905 21.1196 25.5373C21.1196 25.3375 21.2152 25.1739 21.3322 25.1739C21.7921 25.1739 22.2106 23.8933 22.1837 22.5688C22.1564 21.2295 22.1556 21.2278 21.9929 22.1844C21.9032 22.7129 21.876 23.2233 21.9323 23.3183C22.0896 23.5839 21.5553 24.7016 21.2087 24.8316C21.0397 24.895 20.9014 25.1233 20.9014 25.3388C20.9014 25.7095 19.6415 27.0957 19.3045 27.0957C19.218 27.0957 19.1735 26.6874 19.2058 26.1882C19.2599 25.3494 19.2231 25.28 18.7186 25.2711C18.276 25.2632 18.1806 25.1624 18.2138 24.7372C18.236 24.449 18.2013 24.339 18.1365 24.4929C18.0446 24.711 17.9267 24.6917 17.6046 24.4065C17.3769 24.2049 17.1907 23.9108 17.1907 23.7528C17.1907 23.3208 18.2286 23.3971 18.3674 23.8393C18.4318 24.0449 18.4543 23.957 18.4172 23.6439C18.3585 23.1492 18.4947 23.0044 19.4619 22.5331C20.0735 22.235 20.8553 21.9254 21.1993 21.8449C21.7954 21.7057 21.8194 21.654 21.7138 20.7383C21.6529 20.2101 21.6786 19.8972 21.7707 20.0431C21.8746 20.2075 21.989 20.2278 22.0722 20.0962C22.1457 19.9797 21.8142 19.4648 21.3355 18.9523C20.8566 18.4398 20.4648 18.1106 20.4648 18.2203C20.4648 18.3301 20.6488 18.6184 20.8739 18.8609C21.0989 19.1035 21.3458 19.7928 21.423 20.3939L21.5634 21.4864L20.5582 21.7616C20.0054 21.913 19.1934 22.2809 18.754 22.5792C18.1448 22.9924 17.6043 23.1428 16.4813 23.2109C15.4902 23.2711 15.008 23.2224 15.008 23.0627C15.008 22.932 15.1798 22.8235 15.39 22.8218C15.7165 22.819 15.7244 22.7883 15.4445 22.6115C15.1798 22.4441 15.2112 22.4039 15.6082 22.4011C15.8782 22.3994 16.0994 22.3019 16.0994 22.1844C16.0994 22.067 15.9029 21.9709 15.6628 21.9709C15.4227 21.9709 15.2263 21.8645 15.2263 21.7345C15.2263 21.6044 15.082 21.5523 14.9058 21.6183C14.7297 21.6845 14.5313 21.6529 14.4649 21.5481C14.3988 21.443 14.0559 21.2165 13.7032 21.0443C13.1529 20.7757 13.0254 20.774 12.8071 21.0313C12.6589 21.2062 12.6092 21.6076 12.688 21.9935C13.0106 23.5713 10.8106 25.0934 9.32896 24.3176C9.00636 24.1487 8.82061 24.2036 8.47028 24.5715C8.0429 25.0202 8.02325 25.0223 8.02325 24.6211C8.02325 24.2087 8.76167 23.405 8.96117 23.6001C9.13688 23.772 10.6425 21.9124 10.6425 21.5231C10.6425 21.3192 10.7654 21.1118 10.9154 21.0625C11.1267 20.9929 11.1188 20.8906 10.8809 20.6085C10.4683 20.1195 10.7349 19.8987 12.1811 19.5317C13.3251 19.2415 13.6824 19.3228 13.6951 19.8763C13.701 20.1422 13.2952 20.2745 13.1549 20.0525C13.0795 19.9331 12.9254 19.8355 12.8124 19.8355C12.6993 19.8355 12.779 20.0125 12.989 20.2288C13.5755 20.8329 14.1971 20.4505 13.8946 19.6719C13.6997 19.1706 13.7357 19.045 14.1519 18.7747C15.0305 18.2041 17.6969 17.4715 18.4375 17.5974C18.9705 17.688 19.2506 17.6068 19.6055 17.2596L20.0726 16.8027L21.5237 17.4473C24.7805 18.8936 28.117 18.815 29.5275 17.2586C29.9217 16.8238 29.8829 16.8306 29.0866 17.3374C27.9599 18.0544 26.3193 18.4044 24.9398 18.222C23.2131 17.9938 19.3735 16.4638 19.3735 16.004C19.3735 15.59 21.0919 15.2535 23.1932 15.2562C25.0988 15.2588 25.635 15.3485 27.4148 15.962C28.5361 16.3487 29.4989 16.6207 29.5541 16.5665C29.6096 16.5123 30.3129 16.695 31.117 16.9729C31.9211 17.2505 32.7876 17.4796 33.0426 17.4821C33.2977 17.4847 33.9268 17.6318 34.4408 17.8093C34.9549 17.9867 35.4178 18.0903 35.4698 18.0395C35.5601 17.9511 35.0839 17.8022 31.7043 16.8631C30.5049 16.5298 29.9715 16.2413 29.2331 15.5262C28.3375 14.6586 26.6129 11.6142 26.8731 11.3599C27.1416 11.0972 30.078 11.7124 31.2608 12.2789C32.677 12.9573 33.6736 14.0248 34.5277 15.7783C34.8422 16.4243 35.2923 17.193 35.5278 17.4866C35.7631 17.7802 35.4907 17.1119 34.9221 16.0015C33.7245 13.6622 32.8612 12.7269 31.2211 11.9924C30.1788 11.5256 29.4522 11.3676 26.361 10.9351C25.6381 10.8339 25.6213 10.8132 26.0297 10.5211C26.6099 10.106 28.3126 9.62211 30.2358 9.32573L31.8216 9.08123L32.5277 9.74853C33.2578 10.4385 34.9202 11.2813 35.5673 11.2894C36.077 11.2958 36.1407 11.4438 36.4992 13.4519C36.7637 14.9349 36.9763 15.4501 37.826 16.6666C38.8462 18.1274 39.5489 18.6822 41.5052 19.5722C43.1757 20.332 42.8795 20.0236 41.0578 19.1063C39.2946 18.2182 38.0153 16.9144 37.2393 15.2142C36.8621 14.3878 36.3492 11.7203 36.5306 11.5279C36.5753 11.4803 37.2171 11.6725 37.9568 11.955C40.3691 12.8764 41.8527 14.7271 42.6416 17.7988C43.1157 19.645 43.2754 19.4725 42.8302 17.5947C42.1723 14.8189 40.8214 12.9938 38.7079 12.025L37.6337 11.5324L38.817 11.4528C39.7647 11.3889 39.6497 11.3652 38.2392 11.3336C36.2381 11.2888 34.5188 10.8555 33.3571 10.1034C32.5853 9.60375 30.9391 7.70478 30.9445 7.32041C30.9524 6.76522 33.8725 5.52479 35.1513 5.53333C36.6419 5.54337 38.753 6.98239 39.5814 8.55315C40.0192 9.38402 41.419 11.2232 41.419 10.968C41.419 10.8721 41.256 10.6176 41.0565 10.4022C40.6204 9.93046 40.7893 9.68212 41.3457 9.97722C41.9093 10.2762 42.4098 11.3808 42.7167 13.0024C43.1275 15.1725 44.6202 18.0536 45.9093 19.1642C46.5009 19.6739 47.1814 20.1829 47.4215 20.2955C47.745 20.4471 47.7166 20.3813 47.3124 20.0412C45.4119 18.4422 44.7881 17.7123 44.1337 16.3218C43.4883 14.9509 43.2564 14.2614 42.8526 12.5108C42.7156 11.9161 42.7245 11.9191 44.3269 12.9768C45.2135 13.5621 46.2145 14.3598 46.5513 14.7495C47.4637 15.8048 48.1517 17.4324 48.3904 19.0992L48.603 20.5829L48.5166 19.0416C48.366 16.3534 47.3194 14.684 44.606 12.8042C43.6965 12.1739 42.7579 11.3362 42.5204 10.9424C42.283 10.5486 42.1339 10.2264 42.1891 10.2264C42.4242 10.2264 46.8232 12.2672 47.4215 12.6537C47.7817 12.8864 48.586 13.495 49.2092 14.006C49.8321 14.5172 50.6788 15.073 51.0905 15.2413C52.1288 15.6656 54.4508 15.8529 55.4976 15.5966C56.264 15.4089 56.1963 15.397 54.9463 15.4984C52.6317 15.6863 51.1686 15.2027 49.0946 13.5646C47.167 12.0423 47.1838 11.9435 49.3716 11.9377C51.2177 11.9326 52.8493 12.5151 54.1799 13.6543C55.3527 14.6583 56.1673 15.0876 56.4235 14.8369C56.4945 14.7675 56.3921 14.7107 56.1961 14.7107C56.0001 14.7107 55.3263 14.2646 54.699 13.7196C52.8947 12.1519 51.9985 11.8463 49.0586 11.7968C46.5941 11.7551 46.5072 11.7368 44.2795 10.7769C43.0316 10.2392 41.858 9.79935 41.6711 9.79935C41.4203 9.79935 41.3957 9.73678 41.5764 9.55997C41.7379 9.40196 42.3286 9.36587 43.3117 9.45363C47.3667 9.81643 48.3357 9.82284 50.0408 9.49762C51.854 9.15191 51.3716 9.15468 48.1252 9.50872C47.4034 9.58731 46.0036 9.52239 44.8512 9.35669C43.7439 9.1976 42.764 9.08785 42.6741 9.11304C41.9254 9.32209 44.1487 7.2145 45.3128 6.61169C45.5937 6.46627 46.3426 6.34285 46.9771 6.3373C48.2772 6.32576 50.0452 7.12012 50.8801 8.09064C51.1416 8.39471 51.5019 8.72548 51.6805 8.8252C51.859 8.92513 51.5633 8.55273 51.023 7.99753C48.7251 5.63604 46.1095 5.39048 43.8674 7.32575C41.9564 8.97531 41.1069 9.53371 40.7171 9.39662C40.511 9.32423 40.0574 8.82541 39.7093 8.28837C38.4702 6.3768 36.7702 5.3151 34.9492 5.3151C34.0242 5.3151 31.9768 6.06589 31.2113 6.68579C30.883 6.95164 30.3923 7.22368 30.1206 7.29052L29.6266 7.41202L30.1686 6.78188C30.4667 6.43531 31.1512 5.36293 31.6899 4.39882C32.8782 2.27243 33.6919 1.37281 34.921 0.827011C35.4338 0.599382 35.7265 0.411044 35.5715 0.408482C35.026 0.3993 33.6214 1.24127 32.9688 1.96836C32.6058 2.37279 31.8862 3.47976 31.3697 4.42807C30.1546 6.65867 29.0602 7.68342 26.6666 8.83011C25.5966 9.34302 24.688 9.73016 24.6471 9.69087C24.462 9.51129 26.4121 4.1682 27.0093 3.2184C28.4172 0.98033 30.4224 0.160567 34.3795 0.205836C35.7457 0.221425 36.9134 0.18491 36.975 0.124693C37.0365 0.0646895 35.8269 0.00895673 34.2872 0.00105591C32.059 -0.010475 31.2545 0.0693873 30.3456 0.391612ZM30.2135 2.59252C29.9206 2.97432 29.4299 3.77722 29.1231 4.37704C28.8162 4.97707 28.3364 5.7458 28.0568 6.08532C27.0409 7.31935 26.9388 7.5427 27.7104 6.84167C28.1434 6.44812 28.8205 5.48721 29.2147 4.70631C29.6091 3.92541 30.164 2.97432 30.448 2.59252C30.7319 2.21072 30.9151 1.89853 30.8551 1.89853C30.795 1.89853 30.5062 2.21072 30.2135 2.59252ZM23.7105 2.94443C23.9615 3.1001 23.9589 3.15967 23.6944 3.31491C23.5211 3.41677 23.1461 3.81352 22.861 4.19682C22.4216 4.78767 22.3217 5.24164 22.2023 7.18631C22.034 9.9311 21.5756 10.9843 19.6771 12.9906C18.9971 13.709 18.4914 14.3459 18.553 14.4062C18.7732 14.6216 21.1404 11.829 21.7201 10.6697C22.2079 9.69407 22.333 9.09468 22.4349 7.24119C22.5712 4.76567 22.705 4.40373 23.8474 3.42254L24.6273 2.75267L24.0194 2.75588C23.5909 2.75823 23.4997 2.81396 23.7105 2.94443ZM21.5328 3.60511C20.1802 4.28842 18.5979 5.87713 17.6816 7.47181C17.2084 8.29499 17.0534 8.43379 16.9347 8.1406C16.8122 7.83824 16.7821 7.85959 16.7695 8.25783C16.7612 8.52582 16.6068 8.80043 16.4268 8.8679C16.2467 8.9356 16.0994 9.08849 16.0994 9.20764C16.0994 9.33277 16.238 9.31206 16.4268 9.15874C16.6068 9.01247 16.7496 8.97681 16.7439 9.0793C16.7162 9.58901 15.6925 12.8365 15.6757 12.4685C15.6643 12.2211 15.5888 12.1363 15.4958 12.267C15.4076 12.391 14.9438 12.472 14.4651 12.4468C13.9865 12.4216 13.4133 12.4959 13.1915 12.6123C12.5109 12.9684 12.5326 12.662 13.295 11.1433L14.0279 9.68382L13.3175 9.76497C12.8285 9.8207 12.6124 9.95523 12.6242 10.1963C12.6351 10.418 12.6819 10.4485 12.7515 10.2798C12.9361 9.83202 13.2967 9.98277 13.2225 10.4767C13.106 11.2514 12.75 11.1231 12.0307 10.0468C11.4999 9.25248 11.3925 8.92855 11.5538 8.60953C11.7411 8.2399 11.7321 8.23392 11.4667 8.5508C11.3041 8.74491 10.9293 8.94798 10.634 9.00222C10.0979 9.10044 10.0979 9.10066 10.6744 9.1297C11.1107 9.15169 11.4174 9.41114 11.9295 10.1918C12.7988 11.517 12.8141 12.6398 11.9701 13.1555C11.6368 13.3592 11.527 13.287 11.2236 12.6644C10.8835 11.9667 10.8861 11.9347 11.2858 11.9347C11.5154 11.9347 11.7459 12.103 11.7978 12.3084C11.8496 12.5138 11.8697 12.4636 11.8422 12.1965C11.8149 11.9296 11.8775 11.6595 11.9814 11.5967C12.0853 11.5339 12.1704 11.3225 12.1704 11.1271C12.1704 10.8472 12.0986 10.8724 11.8306 11.2465C11.4787 11.738 10.7691 11.8809 10.5334 11.5076C10.4592 11.3902 9.74128 11.2941 8.93804 11.2943C7.74648 11.2943 7.23638 11.4135 6.16793 11.9409C3.58074 13.2178 3.44825 13.3372 3.44279 14.397C3.44018 14.9146 3.31205 15.0912 2.80216 15.2795C1.34978 15.8157 0.892275 18.1445 1.91598 19.7911C2.3654 20.5141 3.53731 21.3358 4.09434 21.3185C4.27441 21.3128 4.07797 21.1663 3.65779 20.9927C1.04747 19.9147 0.978056 15.7303 3.56241 15.256C4.27354 15.1256 4.3172 15.0814 3.97538 14.8369C3.10098 14.2112 4.3698 12.8952 6.81337 11.8933C7.70414 11.5281 9.43352 11.3949 10.0892 11.6411C10.5443 11.8119 11.5069 13.6609 11.5444 14.4367C11.5706 14.9816 11.5844 14.971 11.7081 14.3077C11.9696 12.9067 14.4232 12.3035 16.0736 13.2343C16.508 13.4792 16.6817 13.5339 16.4597 13.3554C15.9649 12.9578 16.0917 11.9473 16.9192 9.69258C17.9254 6.951 20.0344 4.50858 22.2776 3.48681C22.9012 3.20281 23.2642 2.97411 23.0841 2.9786C22.904 2.98308 22.206 3.26495 21.5328 3.60511ZM11.2428 3.99225C11.0328 4.03239 10.8608 4.14642 10.8608 4.24572C10.8608 4.3448 10.7997 4.60211 10.7248 4.81714C10.6235 5.1084 10.6825 5.08555 10.956 4.72702C11.2587 4.33028 11.4008 4.2865 11.7655 4.47761C12.3405 4.77849 12.4804 4.63221 12.0002 4.23205C11.7937 4.06015 11.4528 3.9521 11.2428 3.99225ZM14.5714 4.20899C14.1818 4.33433 13.4801 5.08192 13.4801 5.37147C13.4801 5.48401 13.6704 5.34905 13.9029 5.07188C14.2467 4.66211 14.3999 4.61171 14.7214 4.80304C15.2778 5.13402 15.3564 5.973 14.865 6.33665C14.4782 6.62279 14.4796 6.63176 14.8989 6.56023C15.4428 6.46755 15.5703 5.65484 15.1815 4.75671C14.9979 4.33241 14.784 4.14044 14.5714 4.20899ZM12.4184 5.23567C12.3782 5.85129 11.8616 6.22925 11.2533 6.0881C10.8866 6.00311 10.9123 6.03792 11.3484 6.21729C12.055 6.50791 12.4954 7.5963 12.3088 8.59074L12.1822 9.26551L12.5107 8.67829C12.6969 8.34538 13.0252 8.09106 13.2688 8.09106C13.505 8.09106 13.6984 7.99818 13.6984 7.88436C13.6984 7.75966 13.5039 7.74834 13.2072 7.85617C12.772 8.01419 12.6777 7.93433 12.378 7.15514C12.0903 6.40648 12.0853 6.24249 12.3442 6.05052C12.5186 5.92111 12.6057 5.60231 12.5483 5.30314C12.4612 4.84959 12.4444 4.84063 12.4184 5.23567ZM13.4801 5.92966C13.4801 6.03258 13.6215 6.23181 13.7944 6.3721C13.9673 6.51239 14.1504 6.83654 14.2013 7.09236C14.2934 7.5553 14.2938 7.5553 14.3235 7.07677C14.3399 6.81263 14.1567 6.40413 13.9166 6.16924C13.6765 5.93435 13.4801 5.82652 13.4801 5.92966ZM20.2389 7.71076C19.9621 8.56575 19.2621 10.1784 18.6837 11.2941C18.1053 12.4098 17.8252 13.0825 18.0612 12.7888C19.0482 11.561 21.1663 6.5709 20.837 6.24868C20.7848 6.19764 20.5157 6.85555 20.2389 7.71076ZM10.1272 6.92131C9.58238 7.31102 9.75918 7.63986 10.3542 7.34305C10.6174 7.21172 10.7628 7.00032 10.6801 6.86943C10.5738 6.70116 10.414 6.71611 10.1272 6.92131ZM16.2299 6.74985C15.7113 6.87946 15.1256 7.42782 14.9246 7.9717C14.8083 8.28666 14.9023 8.24801 15.3158 7.81155C15.9018 7.19315 16.1138 7.12289 16.4377 7.43978C16.5686 7.5679 16.645 7.44982 16.645 7.11948C16.645 6.83163 16.645 6.60742 16.645 6.62108C16.645 6.63475 16.4582 6.69262 16.2299 6.74985ZM29.514 7.8519C29.0288 8.06757 28.4521 8.51215 28.2325 8.83993L27.8333 9.43591L28.5691 9.28643C28.9738 9.20422 29.7713 9.08037 30.3417 9.0114C30.912 8.94222 31.3785 8.84185 31.3785 8.78826C31.3785 8.60397 30.6294 7.45046 30.5128 7.45515C30.4486 7.45772 29.9992 7.63623 29.514 7.8519ZM33.6817 7.85276C34.1682 8.06907 34.954 8.48311 35.4279 8.77331C36.2224 9.25953 38.139 9.87643 38.3163 9.70304C38.3582 9.66204 38.0175 9.50744 37.5593 9.35946C37.1011 9.2117 35.9701 8.72163 35.0459 8.27065C34.1217 7.81945 33.2377 7.45259 33.0814 7.45515C32.9252 7.45772 33.1952 7.63666 33.6817 7.85276ZM45.0205 8.0774C44.7163 8.20979 45.0142 8.25805 46.0028 8.23648C46.7831 8.2194 47.9126 8.27235 48.5129 8.35414C49.4253 8.4782 49.4969 8.46582 48.9494 8.27876C48.0541 7.97276 45.5551 7.84486 45.0205 8.0774ZM13.9339 8.42909C13.9443 8.67786 13.9961 8.72847 14.0657 8.55828C14.1288 8.40411 14.1209 8.21982 14.0485 8.14893C13.976 8.07804 13.9245 8.20402 13.9339 8.42909ZM27.3273 8.80619C27.0944 8.9593 26.3521 9.29925 25.6776 9.5619C24.8538 9.88284 24.3688 10.2168 24.2001 10.5792C24.0617 10.876 24.0242 11.0814 24.1167 11.0355C25.1162 10.5397 26.8513 9.79935 27.0141 9.79935C27.2566 9.79935 27.9911 8.76306 27.8479 8.62319C27.7944 8.57088 27.56 8.65309 27.3273 8.80619ZM15.2457 9.82027C15.0342 10.5108 14.8921 10.6736 14.5725 10.592C14.2796 10.517 14.0943 10.661 13.9035 11.1115C13.7584 11.4545 13.7018 11.7959 13.778 11.8704C13.8542 11.945 13.9166 11.8476 13.9166 11.6541C13.9166 11.4596 14.1537 11.2439 14.4466 11.1722C14.8006 11.0853 15.1058 10.7477 15.3666 10.1538C15.5812 9.66525 15.7929 9.19355 15.8372 9.10536C15.8813 9.01717 15.8265 8.9452 15.7156 8.9452C15.6045 8.9452 15.393 9.33896 15.2457 9.82027ZM10.4714 9.8049C10.3254 10.0336 10.2138 10.438 10.2232 10.7039C10.2346 11.0197 10.2822 11.0763 10.3607 10.867C10.4271 10.6909 10.6107 10.4004 10.7691 10.2215C10.9274 10.0428 10.985 9.78226 10.8968 9.64282C10.784 9.46431 10.6582 9.51214 10.4714 9.8049ZM24.5029 11.229C22.7543 12.1499 18.3526 15.8729 19.4826 15.4753C21.9344 14.6124 25.1025 14.7924 28.0579 15.9622C29.6729 16.6013 29.8368 16.5372 28.9371 15.6182C28.506 15.1779 27.7396 14.0231 27.2341 13.0519C26.4101 11.4694 25.8699 10.8499 25.3358 10.8756C25.2378 10.8803 24.863 11.0393 24.5029 11.229ZM41.6373 11.5076C41.6373 11.6251 41.7414 11.7212 41.8685 11.7212C41.9955 11.7212 42.0389 11.6251 41.9647 11.5076C41.8905 11.3902 41.7866 11.2941 41.7336 11.2941C41.6805 11.2941 41.6373 11.3902 41.6373 11.5076ZM40.7096 11.649C40.8598 11.7084 41.1054 11.7084 41.2553 11.649C41.4055 11.5898 41.2826 11.5414 40.9825 11.5414C40.6824 11.5414 40.5597 11.5898 40.7096 11.649ZM8.25877 12.4863C8.26925 12.735 8.32098 12.7856 8.39061 12.6155C8.45369 12.4613 8.44583 12.277 8.37336 12.2061C8.3009 12.1352 8.24938 12.2612 8.25877 12.4863ZM29.3559 13.3823C30.8734 14.631 31.5544 15.1377 31.715 15.1377C32.0261 15.1377 31.0934 14.2815 30.1417 13.6932C29.6218 13.372 29.1964 13.0372 29.1962 12.949C29.196 12.8608 29.0731 12.7916 28.9229 12.795C28.7729 12.7985 28.9676 13.0628 29.3559 13.3823ZM50.5865 13.1339C52.4732 14.0244 53.1143 14.23 52.8886 13.8727C52.8201 13.7645 52.2495 13.5102 51.6207 13.3079C49.9382 12.7668 49.7363 12.7329 50.5865 13.1339ZM10.005 13.5539C10.0154 13.8027 10.0672 13.8533 10.1368 13.6831C10.1999 13.529 10.192 13.3447 10.1195 13.2738C10.0471 13.2029 9.99557 13.3289 10.005 13.5539ZM37.9415 13.5537C38.0991 13.7395 38.604 14.2921 39.0632 14.7816C39.5225 15.2712 40.0188 15.9357 40.1664 16.2588C40.3137 16.5819 40.5542 16.846 40.7009 16.846C41.1014 16.846 40.3043 15.6457 39.035 14.337C38.0397 13.3109 37.2644 12.7555 37.9415 13.5537ZM16.9724 13.6304C16.9724 13.741 17.0696 13.89 17.1883 13.9618C17.3119 14.0365 17.3485 13.9509 17.2741 13.7609C17.1289 13.391 16.9724 13.3233 16.9724 13.6304ZM43.8202 13.6556C43.8213 14.233 45.5357 17.4819 45.8408 17.4849C46.0028 17.4866 45.5874 16.6301 45.3239 16.4189C45.0993 16.2389 44.4753 14.9624 44.4679 14.668C44.4618 14.4224 43.8198 13.419 43.8202 13.6556ZM17.6273 14.7107C17.6273 14.8281 17.7314 14.9242 17.8584 14.9242C17.9855 14.9242 18.0289 14.8281 17.9547 14.7107C17.8805 14.5932 17.7766 14.4971 17.7235 14.4971C17.6705 14.4971 17.6273 14.5932 17.6273 14.7107ZM16.8122 15.461C16.0317 16.2018 14.0635 17.3359 14.2111 16.9598C14.3892 16.5056 14.0602 16.5503 13.6056 17.042C13.1669 17.5161 13.2219 18.4475 13.6885 18.4475C13.8631 18.4475 14.0744 18.2073 14.1578 17.9137C14.291 17.4458 14.3124 17.4358 14.3313 17.8317L14.3532 18.2833L15.6082 17.8622C16.2984 17.6305 17.4448 17.3792 18.1555 17.3036C18.8662 17.2282 19.487 17.0497 19.5352 16.9073C19.6814 16.4743 18.6669 16.3801 17.6478 16.732C17.1189 16.9146 16.6483 17.0271 16.602 16.9818C16.4704 16.8533 18.2402 16.2054 18.723 16.2054C19.1615 16.2054 19.2798 15.8631 18.9882 15.4378C18.9 15.309 18.484 15.1576 18.0638 15.101C17.4817 15.0229 17.1837 15.1085 16.8122 15.461ZM56.8088 15.1354C56.7324 15.2562 56.8199 15.2921 57.0142 15.2193C57.3922 15.0773 57.4614 14.9242 57.1476 14.9242C57.0345 14.9242 56.8821 15.0192 56.8088 15.1354ZM11.7511 15.6893C11.7616 15.9381 11.8133 15.9887 11.883 15.8185C11.9461 15.6643 11.9382 15.48 11.8657 15.4091C11.7933 15.3382 11.7418 15.4642 11.7511 15.6893ZM23.0841 15.987C24.2246 16.0848 25.6372 16.2731 26.2235 16.4059C26.8096 16.5385 27.3291 16.6079 27.3777 16.5603C27.6076 16.3357 25.1511 15.9329 23.1932 15.8746L21.0105 15.8093L23.0841 15.987ZM4.53089 16.0758C4.53089 16.1219 4.68324 16.2169 4.86965 16.287C5.06391 16.3598 5.15144 16.3239 5.07504 16.2031C4.94691 16 4.53089 15.9028 4.53089 16.0758ZM58.0078 16.1851C58.0078 16.3352 58.2145 16.7136 58.4672 17.0258C61.7044 21.0245 63.2103 23.5527 65.1643 28.2702C65.8104 29.8298 66.0978 30.9665 66.5416 33.7153L66.938 36.171L66.8507 34.1424C66.7708 32.2866 66.7821 32.2137 66.9825 33.2883C67.55 36.3309 67.5965 36.421 67.4782 34.2492C67.2671 30.3746 66.4307 27.5093 64.2371 23.1453C63.3587 21.3977 62.3198 19.7287 61.4327 18.6401C60.089 16.991 59.3174 16.3538 59.3174 16.8926C59.3174 17.0284 59.0227 16.8633 58.6626 16.5257C58.3024 16.1881 58.0078 16.0348 58.0078 16.1851ZM15.4991 17.2797C14.7681 17.5671 14.9047 17.7132 15.6628 17.4546C16.023 17.3318 16.3176 17.1926 16.3176 17.1454C16.3176 17.0188 16.052 17.0623 15.4991 17.2797ZM20.0283 17.474C20.0283 17.5846 20.1254 17.7337 20.2441 17.8054C20.3677 17.8802 20.4044 17.7945 20.3299 17.6045C20.1848 17.2347 20.0283 17.167 20.0283 17.474ZM19.2979 18.0119C19.2307 18.1834 18.7634 18.6158 18.2596 18.9728C17.4836 19.5227 17.1451 19.622 16.0461 19.622C14.9515 19.622 14.7319 19.6858 14.6395 20.0309C14.5793 20.256 14.2694 20.5064 13.9507 20.5878L13.3709 20.7356L13.9166 20.9416C14.9403 21.3277 14.9098 21.3495 14.9829 20.1795C15.0052 19.8208 15.1335 19.7907 16.1404 19.9073C17.1331 20.0224 17.3627 19.9713 18.002 19.4943C18.4032 19.1949 18.9175 18.7548 19.1449 18.5159C19.4044 18.2434 19.6662 18.1454 19.8478 18.2524C20.0761 18.3867 20.0739 18.3463 19.8379 18.0615C19.4736 17.622 19.4516 17.6201 19.2979 18.0119ZM16.9316 18.2731C17.089 18.3348 17.2774 18.3271 17.3498 18.2562C17.4223 18.1853 17.2935 18.1349 17.0635 18.1441C16.8092 18.1544 16.7574 18.205 16.9316 18.2731ZM35.9622 18.3408C35.9622 18.4582 36.0663 18.5543 36.1934 18.5543C36.3204 18.5543 36.3638 18.4582 36.2896 18.3408C36.2154 18.2233 36.1115 18.1272 36.0585 18.1272C36.0054 18.1272 35.9622 18.2233 35.9622 18.3408ZM19.4322 19.77C19.6445 19.8242 19.9392 19.8206 20.087 19.7621C20.2348 19.7036 20.061 19.6593 19.7009 19.6636C19.3407 19.6679 19.2198 19.7157 19.4322 19.77ZM7.58671 20.133C7.58671 20.1791 7.73906 20.2741 7.92547 20.3442C8.11973 20.417 8.20726 20.3811 8.13086 20.2602C8.00274 20.0572 7.58671 19.96 7.58671 20.133ZM11.9114 20.1949C12.0687 20.2566 12.2571 20.2489 12.3296 20.178C12.402 20.1071 12.2732 20.0567 12.0432 20.0659C11.7889 20.0762 11.7372 20.1268 11.9114 20.1949ZM43.1652 20.2626C43.5926 20.5329 43.8816 20.5329 43.7109 20.2626C43.6367 20.1451 43.4099 20.0505 43.2069 20.0523C42.8889 20.0552 42.883 20.0843 43.1652 20.2626ZM14.5306 22.5438C14.688 22.6055 14.8764 22.5978 14.9488 22.5269C15.0213 22.456 14.8925 22.4056 14.6625 22.4148C14.4082 22.4251 14.3564 22.4757 14.5306 22.5438ZM12.2381 24.0159C11.7304 24.5734 11.7968 24.7468 12.5182 24.7468C12.8045 24.7468 13.0534 24.5901 13.1114 24.3731C13.1885 24.0847 13.2168 24.106 13.2365 24.4673C13.2505 24.7246 13.1636 24.9945 13.0435 25.0671C12.9235 25.1397 12.8253 25.3996 12.8253 25.6448C12.8253 26.0616 12.7899 26.0532 12.2787 25.5134C11.9779 25.1959 11.6317 24.9969 11.5093 25.071C11.3868 25.1451 11.3135 25.112 11.3465 24.9975C11.405 24.7945 11.3115 24.7468 10.8551 24.7468C10.476 24.7468 11.2489 25.9651 11.9279 26.4382C13.0202 27.1991 13.3976 27.0466 13.6032 25.7611C13.7018 25.1444 13.7586 24.4959 13.7296 24.3198C13.7003 24.1436 13.665 23.8914 13.651 23.7592C13.6065 23.3377 12.7065 23.5013 12.2381 24.0159ZM14.9085 23.8382C14.8423 24.0069 14.8366 24.2213 14.8958 24.3149C14.9549 24.4086 14.8325 24.4718 14.6236 24.4558C14.3872 24.4376 14.2554 24.5666 14.2739 24.7979C14.2903 25.0022 14.2279 25.1233 14.1351 25.0671C13.8016 24.8656 13.7536 25.7966 14.0742 26.2444C14.2543 26.4961 15.087 27.1316 15.9247 27.6569L17.4476 28.612L17.9776 28.0526C18.269 27.7451 18.4416 27.3889 18.3611 27.2614C18.2806 27.1339 18.3135 27.0895 18.4342 27.1626C18.5551 27.2356 18.7664 26.9275 18.9046 26.4767C19.2104 25.4778 19.2132 25.3874 18.9369 25.3874C18.8169 25.3874 18.7073 25.6998 18.6933 26.0814C18.6774 26.517 18.628 26.6221 18.5606 26.3635C18.412 25.7932 17.9523 25.3847 17.4791 25.4024C17.1213 25.4161 17.1252 25.4357 17.5181 25.601C17.9523 25.7835 17.9523 25.7846 17.5122 25.7996C16.996 25.8171 16.0994 25.2557 16.0994 24.9151C16.0994 24.7757 16.2543 24.8088 16.4813 24.9965C16.8631 25.3121 17.6273 25.295 17.6273 24.9708C17.6273 24.8764 17.4799 24.6796 17.2999 24.5333C17.1198 24.387 16.9724 24.1111 16.9724 23.92C16.9722 23.4522 15.0892 23.3776 14.9085 23.8382ZM20.2057 23.825C20.3631 23.8867 20.5515 23.879 20.6239 23.8081C20.6964 23.7372 20.5676 23.6868 20.3376 23.696C20.0833 23.7063 20.0315 23.7569 20.2057 23.825ZM12.3887 25.1865C12.3887 25.3108 12.4869 25.3533 12.607 25.2807C12.727 25.2081 12.8253 25.1064 12.8253 25.0545C12.8253 25.0026 12.727 24.9604 12.607 24.9604C12.4869 24.9604 12.3887 25.0622 12.3887 25.1865ZM15.6628 25.2546C15.6628 25.2988 15.8346 25.4671 16.0448 25.6283C16.391 25.8937 16.3986 25.8863 16.1273 25.5476C15.842 25.1918 15.6628 25.0789 15.6628 25.2546ZM7.77704 26.1882C7.50573 26.5269 7.51337 26.5343 7.85955 26.2689C8.22319 25.9898 8.33866 25.8145 8.15902 25.8145C8.11384 25.8145 7.94184 25.9826 7.77704 26.1882ZM8.80402 36.3429C8.31923 38.9333 8.14549 40.5192 8.43688 39.6943C8.68746 38.9852 9.42326 34.3732 9.30452 34.2568C9.25322 34.2069 9.02796 35.1456 8.80402 36.3429ZM0.0702585 36.6423C-0.0480454 36.9465 -0.0231623 36.9711 0.192491 36.7618C0.34179 36.6168 0.4088 36.4445 0.341572 36.379C0.274344 36.3132 0.152329 36.4317 0.0702585 36.6423ZM16.6544 36.4766C16.5852 36.5859 16.6287 36.7356 16.7507 36.8095C16.8727 36.8831 16.9724 36.7937 16.9724 36.6107C16.9724 36.2355 16.8415 36.1804 16.6544 36.4766ZM5.32234 37.5248C5.13572 38.0471 5.27061 40.3828 5.64473 43.1109C6.68459 50.6914 11.8845 58.7852 18.6095 63.2915C20.5705 64.6054 22.7307 65.6028 23.2598 65.4386C23.4846 65.3688 24.0388 65.4629 24.4913 65.6478C26.0683 66.2925 25.4637 65.8078 22.6781 64.1943C21.1353 63.3007 19.0757 61.9814 18.1009 61.2629C12.3121 56.9956 7.37455 48.886 6.49294 42.1978C6.36569 41.232 6.17143 39.7691 6.06098 38.9469L5.86039 37.4522L5.96909 39.2672C6.02868 40.2655 6.12253 41.6588 6.17732 42.3635C6.26048 43.4299 6.23996 43.5373 6.05487 43.0041C5.93264 42.6518 5.75802 41.1624 5.66678 39.6943C5.55371 37.8752 5.44414 37.1842 5.32234 37.5248ZM67.4022 38.8556C67.3974 38.9226 67.5535 39.437 67.7491 39.9984C68.5047 42.1679 67.7847 44.7154 65.8139 46.8448L64.8572 47.8785L64.3792 46.4939C63.5414 44.0677 63.8306 42.6411 65.4074 41.4193C66.2997 40.728 67.11 39.5594 66.864 39.3185C66.795 39.2512 66.7387 39.3215 66.7387 39.475C66.7387 39.6283 66.1142 40.3559 65.3511 41.0915C63.4271 42.9463 63.2188 43.756 64.0273 46.2403L64.6105 48.0325L64.1209 49.3619C63.5698 50.858 61.2731 55.3405 60.6694 56.0981L60.2745 56.5937L60.3629 55.8538C60.4177 55.3932 60.722 54.8329 61.1684 54.3702C61.9803 53.5278 63.0401 51.1368 63.004 50.2278C62.9853 49.7493 62.9429 49.8082 62.8008 50.5112C62.5961 51.5227 61.9135 52.9342 61.1415 53.9416C60.617 54.6262 60.6124 54.6275 60.1842 54.2085C59.9476 53.9771 59.6066 53.7877 59.4265 53.7877C59.2465 53.7877 59.0991 53.6916 59.0991 53.5741C59.0991 53.4567 59.1727 53.3604 59.2628 53.36C59.353 53.3597 59.8685 52.969 60.4088 52.4915C61.5654 51.4693 61.1762 51.6111 59.692 52.7522C59.1177 53.1938 58.5153 53.5054 58.3533 53.4445C58.1913 53.3839 57.6884 53.4855 57.2357 53.6704C56.7833 53.8554 56.3744 53.9692 56.3273 53.923C56.1544 53.7539 58.6052 52.0106 60.3601 51.0546C61.4045 50.4858 62.1251 49.9624 62.0672 49.8146C62.012 49.6741 62.1185 48.7089 62.3036 47.6697C62.695 45.4722 62.5919 42.9386 62.0663 41.8297C61.8714 41.4186 61.7706 41.2745 61.842 41.5094C61.9136 41.7443 62.0716 42.513 62.1929 43.2177C62.6242 45.7182 61.893 49.8958 60.9145 50.5231C60.4158 50.8428 60.356 50.8287 59.7243 50.2417C58.878 49.4555 58.226 48.2204 58.226 47.404C58.226 46.4792 58.5694 45.7361 59.5091 44.627C60.5496 43.3989 61.1544 42.488 61.0182 42.3545C60.9606 42.2984 60.6046 42.7097 60.2272 43.2687C59.8498 43.8279 59.1958 44.7011 58.7743 45.2095C58.1272 45.9896 58.0078 46.299 58.0078 47.1952C58.0078 48.3884 58.4092 49.3117 59.3497 50.2825L59.9882 50.9414L58.7252 51.7112C58.0305 52.1345 56.8669 53.0392 56.1394 53.7215C55.4119 54.4039 54.4576 55.2792 54.0184 55.6668C53.2459 56.3488 52.7729 57.4015 52.7705 58.4447C52.7697 58.7188 52.6723 58.8792 52.5509 58.8057C52.2187 58.6048 52.2906 58.9401 52.6666 59.3466C53.0558 59.7675 53.5041 61.1215 53.1918 60.9326C53.0794 60.8647 52.9875 60.6441 52.9875 60.4421C52.9875 59.8057 52.3781 59.1544 51.8977 59.2772C51.4541 59.3908 51.2808 59.7667 51.6722 59.7667C51.7892 59.7667 52.0374 60.0549 52.2235 60.4073C52.4521 60.8395 52.4807 61.0479 52.3115 61.0479C52.1426 61.0479 52.1585 61.1636 52.3606 61.4032C52.6352 61.7288 52.6147 61.7344 52.1144 61.4696C51.8143 61.3107 51.3878 61.1664 51.1667 61.1487C50.8102 61.12 50.2923 60.624 50.4538 60.466C50.4878 60.4327 50.8323 60.5599 51.2195 60.7489C52.2613 61.2573 52.2877 60.9569 51.2514 60.3872C50.5029 59.9757 50.3374 59.7596 50.22 59.0423C49.9812 57.5807 47.8349 56.087 46.976 56.7844C46.801 56.9266 46.6576 57.1788 46.6576 57.3447C46.6576 57.5766 46.5602 57.5954 46.2354 57.4252C45.5642 57.0738 45.1297 57.1602 45.1297 57.6454C45.1297 58.1346 44.78 58.8581 44.3312 59.2971C44.1701 59.4547 44.0383 59.7376 44.0383 59.926C44.0383 60.2132 43.9593 60.1986 43.5472 59.8356C43.277 59.5977 42.9087 59.3287 42.7287 59.2377C42.5486 59.147 42.7492 59.3633 43.1744 59.7188C43.5996 60.0744 44.1856 60.8181 44.4766 61.3716C44.7676 61.9251 45.1294 62.4243 45.2807 62.4811C45.4748 62.5539 45.3829 62.8144 44.9697 63.3643C44.6473 63.7933 44.3539 64.1851 44.3177 64.2353C44.2817 64.2855 43.9829 64.0809 43.6541 63.7809C43.0133 63.1963 42.4667 62.8836 41.4882 62.5415C40.9148 62.341 40.9019 62.3483 41.297 62.6481C41.5301 62.8249 41.8346 62.9697 41.9737 62.9697C42.4065 62.9697 44.0383 64.2366 44.0383 64.5725C44.0383 65.1548 43.2853 64.9022 42.4589 64.0429C41.7866 63.3438 39.8911 62.1279 39.8911 62.3955C39.8911 62.4369 40.3576 62.7668 40.9279 63.1288C42.0625 63.849 43.141 64.8721 42.8212 64.925C42.7103 64.9434 42.374 64.9861 42.0738 65.0201C41.7737 65.054 41.1353 65.1808 40.6551 65.3019C39.3605 65.6282 39.2824 65.6032 38.8201 64.7168C38.4296 63.9682 36.815 62.3291 36.4679 62.3291C36.3867 62.3291 36.7334 62.675 37.2382 63.0978C38.1107 63.8285 39.0034 65.1053 38.6417 65.1048C38.1864 65.1046 35.9827 64.1512 35.3074 63.6624L34.5434 63.1093L35.0732 63.6808C35.3676 63.9983 36.3132 64.5106 37.2013 64.8336C38.0805 65.1535 38.7998 65.4775 38.7998 65.5537C38.7998 65.7352 37.6676 65.9519 36.5352 65.9872C35.6902 66.0134 35.7086 66.025 36.8353 66.1749C37.9692 66.3256 40.0463 66.998 40.7631 67.4465C41.0434 67.6218 41.0279 67.6961 40.654 67.9726C40.0601 68.4116 38.2929 68.3811 36.8914 67.9073C36.1346 67.6517 35.8243 67.6117 35.9753 67.7896C36.1462 67.991 35.9524 68.2276 35.2035 68.7317C33.8738 69.6267 32.4166 71.0405 32.5711 71.2852C32.6394 71.3932 32.5953 71.5419 32.4733 71.6157C32.3513 71.6894 32.2516 71.8534 32.2516 71.9798C32.2516 72.1064 32.5069 71.96 32.8193 71.6546C33.1316 71.349 33.5828 71.0383 33.822 70.964C35.0221 70.5914 36.9008 68.9414 36.5336 68.5825C36.4684 68.5186 36.3045 68.7042 36.1691 68.9948C35.9679 69.4266 33.7177 70.9523 32.8101 71.2724C32.3633 71.4297 33.9024 69.969 35.1653 69.0369C36.7729 67.8503 37.157 67.8148 36.9822 68.8688C36.7257 70.4157 35.3157 71.6992 33.8266 71.7415C33.5005 71.7507 33.3619 71.8086 33.5184 71.8698C34.6953 72.3313 36.9379 70.6924 37.1832 69.1917L37.319 68.361L38.7277 68.4716C39.9442 68.5671 40.2255 68.5178 40.7878 68.1112C41.3658 67.6933 41.5096 67.6709 42.068 67.9128C42.4141 68.0625 42.6551 68.2519 42.6034 68.3335C42.5519 68.4151 42.6817 68.4415 42.8921 68.3922C43.265 68.3047 44.0182 68.632 43.8137 68.7928C43.4387 69.0875 41.3769 70.2299 41.2197 70.2299C41.1137 70.2299 40.5996 70.4691 40.0771 70.7612C39.5545 71.0533 39.216 71.2935 39.3245 71.295C39.629 71.2991 41.7165 70.2989 43.0759 69.4979C44.123 68.8808 44.398 68.8048 44.9858 68.9696C45.3634 69.0755 46.0905 69.1622 46.6015 69.1622C47.1127 69.1622 47.5307 69.2357 47.5307 69.3254C47.5307 69.415 46.957 70.1118 46.2557 70.8735C45.5546 71.6352 44.8616 72.4987 44.7158 72.7923C44.4827 73.2617 44.51 73.2514 44.9409 72.7078C45.2104 72.3676 45.7173 71.7911 46.0676 71.4265C46.4177 71.062 46.9806 70.3994 47.3185 69.9542C47.6564 69.509 48.2759 68.9169 48.6954 68.6384L49.4578 68.1321L49.1989 68.7006C48.5908 70.0347 48.1676 70.6064 47.1696 71.4419C46.5879 71.929 45.8663 72.5337 45.5662 72.7855C45.1281 73.1532 45.1102 73.2012 45.475 73.0296C45.7249 72.9119 46.0562 72.6663 46.2112 72.4838C46.366 72.3012 46.5744 72.1517 46.6742 72.1517C47.1502 72.1517 48.8322 70.1242 49.2856 69.0042C49.5593 68.3277 50.0736 67.5052 50.4285 67.1763C51.0861 66.5671 51.5399 66.4907 50.9244 67.0931C50.7384 67.2748 50.5865 67.5769 50.5865 67.7644C50.5865 68.313 49.1544 70.9382 48.4786 71.6281C48.1373 71.9766 47.9415 72.1987 48.0436 72.1214C48.1455 72.0441 48.3942 72.1393 48.5956 72.3332C48.7973 72.5269 49.4257 73.0819 49.9924 73.5664C50.559 74.0509 51.1712 74.7955 51.3531 75.2213C51.6704 75.9642 52.1633 76.2228 52.4368 75.7899C52.5176 75.662 52.7823 75.6806 53.1379 75.839C53.629 76.0579 53.7429 76.0383 53.9486 75.699C54.5715 74.6714 54.914 74.387 55.1984 74.6608C55.6153 75.0618 56.1915 74.9858 57.2246 74.3936C58.5288 73.6458 59.0773 72.3272 58.3352 71.7246C58.1551 71.5784 58.0078 71.3787 58.0078 71.2809C58.0078 71.1831 57.7622 70.749 57.4621 70.3164C56.8898 69.4915 56.7128 68.8776 57.1783 69.333C57.5765 69.7225 57.7465 69.6495 58.1298 68.9241C58.3884 68.4349 58.5458 68.322 58.7248 68.4971C58.8586 68.628 59.3229 68.7351 59.7561 68.7351C60.1896 68.7351 61.1769 68.9811 61.9498 69.2818C62.7229 69.5827 63.8957 69.9284 64.556 70.0505C65.2162 70.1725 66.0169 70.3204 66.3351 70.3789C67.0506 70.5109 67.9431 69.7488 67.7168 69.1992C67.636 69.0027 67.5197 68.7219 67.4583 68.575C67.3924 68.4172 67.5151 68.3081 67.7582 68.3081C68.3932 68.3081 69.1539 67.6865 69.4944 66.8893C69.8757 65.9961 69.5677 65.2799 68.4515 64.4644C67.7377 63.9428 67.6476 63.9323 64.5254 64.0017C62.7679 64.0408 61.2784 63.9908 61.2151 63.8909C61.0271 63.5934 63.2778 62.0797 63.6674 62.2415C64.602 62.6297 64.9203 62.5576 65.7982 61.7581C66.4866 61.1314 66.747 60.6968 66.9166 59.892C67.0497 59.2595 67.0604 58.645 66.9434 58.3441C66.7649 57.8843 66.8657 57.7865 68.2175 57.1088C69.8467 56.292 71.5158 55.2993 71.2775 55.289C71.1928 55.2854 70.6525 55.5491 70.077 55.8752C67.5537 57.3048 66.957 57.5442 66.7455 57.2121C66.5866 56.9629 66.8122 56.8201 67.8648 56.5038C68.5899 56.2862 69.1456 56.071 69.0993 56.0259C69.0533 55.9807 68.2284 56.1795 67.2667 56.4675C66.3048 56.7556 64.5894 57.1233 63.4543 57.2845C61.9428 57.4993 61.6536 57.5837 62.3732 57.5993C62.9135 57.6112 63.7859 57.5237 64.3119 57.4052C65.6561 57.1019 65.6506 57.2824 64.2969 57.9153C63.276 58.3923 62.9484 58.4427 61.5602 58.3362C59.7555 58.1978 59.7334 58.0866 61.2819 56.9328C63.8459 55.0221 66.2799 54.3646 69.4671 54.7214C70.4502 54.8316 70.4827 54.8227 69.7945 54.6318C69.3743 54.5152 68.343 54.4123 67.5026 54.4029C65.6722 54.3826 63.6488 55.055 61.69 56.3347C60.9852 56.7951 60.4088 57.1246 60.4088 57.0669C60.4088 57.0093 60.6449 56.6563 60.9337 56.2824C61.2225 55.9085 61.8612 54.8184 62.3531 53.8598C63.1424 52.3215 63.3642 52.0617 64.241 51.6463C65.1451 51.2182 65.4354 51.1891 67.4601 51.3228C71.1273 51.565 73.377 50.9158 75.5787 48.9803C76.275 48.3683 76.1423 48.4264 74.9239 49.2673C72.5284 50.9209 70.713 51.3365 67.1159 51.0548L65.2014 50.9049L66.4807 49.5913C67.9543 48.0782 69.3706 47.3007 71.2672 46.9644C72.4302 46.7581 72.7534 46.7803 73.7636 47.1367C75.7815 47.8488 75.8372 47.8627 75.2513 47.5059C74.9512 47.3231 74.1781 47.0179 73.5333 46.8279C70.9736 46.0731 67.6843 47.4322 65.6002 50.1055C65.1658 50.6626 64.5099 51.2293 64.1428 51.3649L63.4751 51.6113L63.7676 51.0446C63.9286 50.7328 64.2235 49.9891 64.4228 49.3918C64.6594 48.6837 65.1518 47.9338 65.8379 47.2375C66.4167 46.65 67.1755 45.6014 67.5238 44.9071C68.0736 43.8119 68.157 43.4043 68.1542 41.8297C68.1518 40.5224 68.0475 39.8355 67.7809 39.374C67.5775 39.0217 67.407 38.7883 67.4022 38.8556ZM67.125 41.5854C67.0408 42.2145 66.8841 42.8391 66.7762 42.9734C66.6686 43.1077 66.5117 43.4995 66.4272 43.844C66.3427 44.1884 66.0845 44.8536 65.8529 45.3223C65.6213 45.791 65.4797 46.221 65.5378 46.2778C65.6825 46.4194 66.8275 43.8696 67.1595 42.6665C67.3082 42.1284 67.3955 41.4077 67.3538 41.065C67.2977 40.6046 67.2379 40.7406 67.125 41.5854ZM6.29431 44.0895C6.30479 44.3383 6.35652 44.3889 6.42615 44.2187C6.48923 44.0645 6.48137 43.8803 6.40891 43.8094C6.33644 43.7385 6.28493 43.8645 6.29431 44.0895ZM60.9073 45.5219C60.6415 46.3686 60.3749 47.5898 60.3149 48.2357L60.2062 49.4102L60.54 48.0222C60.7235 47.2588 61.0256 46.1378 61.2111 45.5309C61.3967 44.924 61.513 44.3272 61.4698 44.2048C61.4264 44.0825 61.1734 44.6752 60.9073 45.5219ZM71.3224 50.1864C70.7822 50.294 69.722 50.3474 68.9664 50.3053C68.2107 50.2633 67.5336 50.322 67.4616 50.436C67.2877 50.7113 71.6841 50.499 72.4138 50.1971C73.0706 49.925 72.6552 49.921 71.3224 50.1864ZM56.971 54.0887C56.3408 54.3326 55.8281 54.5807 55.832 54.6403C55.8357 54.6999 55.9684 54.9153 56.1265 55.1191C56.3915 55.4603 56.4888 55.4223 57.3564 54.6386C57.8746 54.1705 58.2579 53.7556 58.2079 53.7166C58.1577 53.6775 57.6011 53.8449 56.971 54.0887ZM57.7375 54.6984C56.8221 55.4735 56.3227 56.4927 55.9346 58.3787C55.7897 59.0833 55.4616 60.1645 55.2056 60.7809C54.941 61.4177 54.8391 61.902 54.9694 61.902C55.2818 61.902 57.3309 59.8749 58.1854 58.7203C58.9856 57.6394 59.0736 57.0001 58.4443 56.8391C57.9563 56.7142 57.8622 56.0919 58.2806 55.7565C58.4308 55.6362 58.971 55.4285 59.4811 55.295C60.5282 55.0213 60.6238 54.8135 59.9236 54.3337C59.2004 53.8381 58.644 53.9309 57.7375 54.6984ZM58.503 54.7898C58.7154 54.844 59.0101 54.8404 59.1579 54.7819C59.3056 54.7234 59.1319 54.6792 58.7717 54.6834C58.4116 54.6877 58.2907 54.7355 58.503 54.7898ZM71.2081 55.0817C71.6097 55.1989 71.9388 55.1919 72.0702 55.0633C72.2082 54.9284 71.9801 54.8617 71.4207 54.8737C70.5685 54.8919 70.5661 54.8942 71.2081 55.0817ZM54.5682 55.5626C53.1789 56.4754 52.5651 58.8045 53.4784 59.6979C53.7159 59.9302 53.7742 59.7897 53.8143 58.8867C53.8617 57.8199 54.4726 56.106 54.8969 55.8496C55.0139 55.7787 54.922 56.0919 54.6926 56.5453C54.2832 57.3552 53.78 60.5715 54.114 60.2448C54.2079 60.1529 54.3183 59.8623 54.3593 59.599C54.4004 59.3357 54.5545 59.0024 54.7018 58.8583C54.8788 58.6851 54.8535 58.9183 54.6272 59.5456C54.2936 60.4707 54.3155 61.0479 54.6837 61.0479C54.8948 61.0479 55.5182 59.3622 55.7102 58.2719C55.7827 57.8609 55.9488 57.1169 56.0798 56.6185C56.2618 55.9243 56.2537 55.6371 56.0446 55.3907C55.6869 54.9689 55.4254 54.9995 54.5682 55.5626ZM58.7113 55.8284C58.1104 56.2401 58.0955 56.4944 58.6626 56.6704C58.9577 56.762 59.0991 56.9935 59.0991 57.3849C59.0991 57.9661 58.7333 58.5636 57.3944 60.1687L56.6719 61.0348L57.7681 60.5892C58.371 60.3441 59.0072 59.93 59.1821 59.6689C59.5979 59.0483 59.9945 57.5839 60.0615 56.4225C60.1086 55.6063 60.0602 55.4959 59.6555 55.4959C59.403 55.4959 58.978 55.6456 58.7113 55.8284ZM56.9529 56.3992C56.7056 56.7908 56.3989 57.5886 56.2714 58.172C56.1442 58.7554 55.9837 59.4728 55.9148 59.7662C55.6476 60.9044 56.0765 59.9612 56.4901 58.5008C56.7302 57.6537 57.0849 56.7242 57.2783 56.4353C57.4719 56.1462 57.5791 55.8596 57.5167 55.7983C57.454 55.737 57.2004 56.0074 56.9529 56.3992ZM55.0611 56.9907C54.8749 57.343 54.7717 57.6313 54.8317 57.6313C54.8917 57.6313 55.0932 57.343 55.2794 56.9907C55.4655 56.6384 55.5688 56.3501 55.5088 56.3501C55.4487 56.3501 55.2473 56.6384 55.0611 56.9907ZM47.0478 57.3253C46.7997 57.8581 46.6235 57.8869 45.7598 57.5371C45.4802 57.424 45.3783 57.5732 45.2661 58.2602C45.1882 58.7363 45.0432 59.126 44.9439 59.126C44.8444 59.126 44.6527 59.3631 44.5178 59.6526C44.3293 60.0577 44.3424 60.3411 44.575 60.8805C45.0875 62.0696 46.1761 62.8862 47.9161 63.3874C49.451 63.8292 49.5445 63.8324 50.8083 63.4854C52.1543 63.116 52.5296 62.7562 51.5687 62.7562C51.2686 62.7562 51.023 62.6543 51.023 62.53C51.023 62.4057 50.9407 62.3536 50.8403 62.4143C50.6018 62.5586 49.7134 61.9475 49.7134 61.6392C49.7134 61.5078 49.9747 61.6334 50.294 61.9182C50.808 62.3765 50.8552 62.3869 50.7044 62.0088C50.3006 60.9962 49.9317 59.6627 49.9317 59.2153C49.9317 58.6262 49.011 57.5151 48.1704 57.0898C47.3626 56.6811 47.3462 56.6845 47.0478 57.3253ZM65.0394 57.8517C64.525 58.2002 63.9928 58.4854 63.8568 58.4854C63.7208 58.4854 62.3739 58.9977 60.8632 59.624C59.3528 60.2503 57.7731 60.8954 57.353 61.0577C56.9328 61.22 56.2561 61.5723 55.8491 61.8409C55.1589 62.2964 55.1442 62.3291 55.6308 62.3304C55.9178 62.331 57.1347 62.656 58.3352 63.0523C60.6783 63.826 60.705 63.8238 61.9022 62.7726C62.8325 61.9554 63.3454 61.8019 64.1103 62.1119C64.6789 62.3423 64.788 62.299 65.5976 61.5226C66.0782 61.0617 66.5403 60.3782 66.6243 60.0035C66.8236 59.1158 66.5514 57.2023 66.2271 57.2111C66.0882 57.2147 65.5539 57.503 65.0394 57.8517ZM56.9738 58.9584C56.6551 59.6565 56.5945 59.9394 56.799 59.7733C57.1067 59.5234 57.688 58.0974 57.5385 57.9593C57.4964 57.9206 57.2425 58.3701 56.9738 58.9584ZM51.8324 58.4876C51.77 58.7212 51.7966 58.9591 51.8918 59.0167C51.9869 59.0742 52.1159 58.9302 52.1781 58.6968C52.2406 58.4632 52.2139 58.2254 52.1188 58.1677C52.0236 58.1103 51.8946 58.2542 51.8324 58.4876ZM65.17 58.2042C65.3273 58.2659 65.5157 58.2582 65.5882 58.1873C65.6606 58.1165 65.5319 58.0661 65.3018 58.0752C65.0475 58.0855 64.9958 58.1361 65.17 58.2042ZM41.8148 58.4178C41.9721 58.4795 42.1605 58.4718 42.233 58.4009C42.3054 58.33 42.1767 58.2796 41.9466 58.2888C41.6923 58.299 41.6406 58.3496 41.8148 58.4178ZM47.771 58.4854C47.757 58.8461 48.5397 60.6208 48.7128 60.6208C48.7744 60.6208 48.6471 60.2123 48.43 59.7133C48.2126 59.2142 47.9783 58.6616 47.9092 58.4854C47.7974 58.2008 47.7821 58.2008 47.771 58.4854ZM58.7449 58.9659C57.8748 59.9371 57.6607 60.3291 58.3072 59.7667C58.8612 59.2847 59.4519 58.4854 59.2539 58.4854C59.2107 58.4854 58.9815 58.7015 58.7449 58.9659ZM59.7118 59.2435C59.5187 59.6605 59.4246 59.9687 59.5027 59.9283C60.1281 59.6052 61.7915 58.9125 61.9419 58.9125C62.0449 58.9125 62.1899 58.8164 62.2641 58.699C62.3477 58.5668 61.9541 58.4854 61.231 58.4854C60.1047 58.4854 60.0508 58.5123 59.7118 59.2435ZM43.5435 58.939C43.6917 59.085 43.8678 59.1506 43.9348 59.0848C44.0021 59.0191 43.8809 58.8997 43.6657 58.8194C43.3547 58.7037 43.3296 58.728 43.5435 58.939ZM54.8699 59.8818C54.6592 60.4186 54.7212 60.5572 54.9786 60.1243C55.1061 59.9099 55.1643 59.6896 55.108 59.6347C55.0519 59.5796 54.9445 59.6908 54.8699 59.8818ZM62.7609 59.9232C63.2743 59.9684 64.06 59.9678 64.5071 59.9219C64.9541 59.876 64.5341 59.839 63.5737 59.8399C62.6133 59.8405 62.2475 59.8781 62.7609 59.9232ZM46.4242 60.5283C46.8361 60.7032 47.5972 61.1862 48.1159 61.602C48.6343 62.0175 49.0568 62.2791 49.0547 62.1832C49.0485 61.9163 47.4161 60.6488 46.7676 60.4075C45.8698 60.0737 45.5874 60.173 46.4242 60.5283ZM43.5009 61.8386C44.2168 63.28 44.6931 63.9127 44.6931 63.422C44.6931 63.3045 44.5977 63.1508 44.481 63.0803C44.3644 63.0096 44.0809 62.5475 43.8508 62.0534C43.6207 61.5591 43.2761 60.9625 43.0849 60.7276C42.8937 60.4927 43.081 60.9926 43.5009 61.8386ZM58.1612 61.4149C56.601 61.8151 56.6767 62.0521 58.2472 61.6836C58.8719 61.5369 60.3752 61.3481 61.5877 61.264L63.792 61.1113L61.6093 61.1008C60.3217 61.0946 58.9075 61.2234 58.1612 61.4149ZM50.8048 61.4628C50.8048 61.7944 51.6277 62.5426 51.9924 62.5426C52.1655 62.5426 52.3669 62.4476 52.4403 62.3314C52.5195 62.2061 52.4215 62.1775 52.1991 62.261C51.9771 62.3445 51.8787 62.3158 51.9577 62.1909C52.0308 62.0752 51.8014 61.8132 51.4478 61.6088C51.0903 61.4023 50.8048 61.3374 50.8048 61.4628ZM33.9255 62.0752C34.3062 62.4294 34.5845 62.7517 34.5443 62.7912C34.5039 62.8307 34.7178 62.8774 35.0195 62.8949C35.3211 62.9127 36.0006 63.2308 36.5291 63.6022C37.0577 63.9735 37.4895 64.1994 37.4886 64.104C37.4866 63.8708 36.2512 63.0636 35.3074 62.6791C34.8872 62.508 34.2488 62.1572 33.8886 61.8994L33.2338 61.431L33.9255 62.0752ZM46.9221 62.0088C47.4859 62.3024 48.0255 62.5396 48.1209 62.536C48.4326 62.524 46.5578 61.4771 46.2228 61.476C46.0436 61.4754 46.3583 61.7152 46.9221 62.0088ZM34.3252 61.7824C34.8907 62.0271 36.2298 62.2926 36.0528 62.1247C35.943 62.0205 35.4602 61.8796 34.98 61.8115C34.4998 61.7436 34.2051 61.7303 34.3252 61.7824ZM39.3548 61.8873C39.2856 61.9966 39.3127 62.1365 39.4146 62.1982C39.5166 62.2599 39.6002 62.1704 39.6002 61.9994C39.6002 61.6394 39.5312 61.608 39.3548 61.8873ZM59.258 62.4833C59.6455 62.5304 60.333 62.5311 60.786 62.485C61.2386 62.4386 60.9217 62.4002 60.0814 62.3991C59.241 62.3983 58.8704 62.4361 59.258 62.4833ZM31.6744 62.9868C33.2334 63.6054 34.5526 64.5669 34.8693 65.3149C35.0225 65.6767 35.1079 66.0119 35.0592 66.0595C34.8608 66.2537 32.0318 65.1554 31.2429 64.5782C30.5698 64.0854 30.4857 64.0587 30.8328 64.4478C31.5561 65.2584 34.7953 66.5891 35.3008 66.2833C35.5844 66.1121 34.8796 64.7397 34.1804 64.1016C33.6444 63.6124 31.3449 62.5341 30.881 62.5544C30.7346 62.5608 31.0914 62.7553 31.6744 62.9868ZM53.5515 62.7271C53.4673 62.8606 53.4566 62.9697 53.5279 62.9697C53.5993 62.9697 53.5533 63.1604 53.4258 63.3936C53.2983 63.6265 53.1606 64.2545 53.1196 64.7888C53.0787 65.3231 52.9744 65.8291 52.8877 65.9131C52.8011 65.9972 52.7991 65.7057 52.8832 65.2652C52.9672 64.8249 52.9711 64.4644 52.8915 64.4644C52.812 64.4644 52.5915 64.8249 52.4016 65.2652C52.1664 65.8112 52.0221 67.0168 51.9485 69.0554C51.8562 71.6134 51.7818 72.1 51.4319 72.427C50.9318 72.8942 50.9301 72.9892 51.3937 74.4818C51.8512 75.9544 51.7737 75.8602 52.2761 75.5531C52.58 75.3678 52.8144 75.3582 53.1091 75.5196C53.4533 75.7079 53.6004 75.627 54.0252 75.0157C54.5595 74.2463 54.9229 74.1325 55.574 74.5301C55.8953 74.7265 56.1599 74.6652 56.9522 74.2111C57.4913 73.9019 58.0575 73.4205 58.2103 73.1415C58.46 72.6849 58.3921 72.4737 57.5363 71.0432L56.5844 69.4528L55.7358 70.0548C55.2689 70.386 54.7544 70.657 54.592 70.657C54.164 70.657 54.226 70.9079 54.8585 71.7366C55.6651 72.7927 55.9549 73.4464 55.2794 72.6856C54.546 71.8594 54.0284 70.9096 54.1804 70.6689C54.2461 70.5649 54.19 70.4441 54.0557 70.4003C53.877 70.342 53.8732 69.8077 54.0418 68.4069C54.5248 64.3908 54.5344 63.5458 54.1031 62.994C53.8396 62.6569 53.653 62.5665 53.5515 62.7271ZM54.4312 62.7169C54.3534 62.8396 54.3986 63.0058 54.5311 63.0861C54.778 63.2353 54.642 66.6429 54.3035 68.7909C54.1983 69.4584 54.2299 69.9233 54.3956 70.1449C54.6176 70.4419 54.7738 70.3883 55.6978 69.6986C56.4456 69.14 56.888 68.9489 57.2355 69.0343C57.6077 69.1257 57.7816 69.0285 57.97 68.6243C58.2199 68.0877 58.7457 67.9216 58.9867 68.303C59.1995 68.6399 61.0448 68.4687 61.4058 68.0785C61.8732 67.5733 61.62 67.1631 60.2263 66.1663C59.5464 65.6799 58.4428 64.7038 57.7738 63.997C56.7032 62.8659 56.439 62.6991 55.5651 62.6028C54.9862 62.539 54.5134 62.5866 54.4312 62.7169ZM30.5054 63.0594C30.5054 63.1029 31.0212 63.3987 31.6513 63.7166C32.2815 64.0348 33.115 64.5906 33.5034 64.9524C33.8917 65.3139 34.2653 65.555 34.3339 65.4881C34.4699 65.3549 32.8664 64.026 32.1025 63.6387C31.442 63.3037 30.5054 62.9639 30.5054 63.0594ZM39.4611 63.1051C39.4544 63.3577 41.0846 64.8915 41.3603 64.8915C41.4472 64.8915 41.154 64.5975 40.7083 64.2383C40.2628 63.8789 39.8014 63.4226 39.6831 63.224C39.5648 63.0254 39.4648 62.9718 39.4611 63.1051ZM45.0502 63.782C44.7337 64.2287 44.4748 64.6477 44.4748 64.7132C44.4748 64.8565 45.1408 64.7627 47.3124 64.3135L48.9494 63.9748L47.3124 63.4762C46.412 63.202 45.6642 62.9759 45.6505 62.9737C45.6367 62.9716 45.3667 63.3353 45.0502 63.782ZM58.0102 63.8268C58.3638 64.2637 59.1109 64.9462 59.6704 65.3436C61.8998 66.9267 62.3566 67.6532 61.5931 68.4001C61.2803 68.7061 61.2854 68.749 61.6477 68.8763C61.8666 68.9532 62.516 69.1932 63.0907 69.4095C63.6654 69.6258 64.4219 69.8028 64.7721 69.8028C65.1222 69.8028 65.6462 69.9087 65.9368 70.0384C66.3279 70.2126 66.59 70.2085 66.9458 70.0221C67.361 69.805 67.4066 69.6563 67.2813 68.931C67.1414 68.121 67.1604 68.0869 67.8172 67.9583C68.5982 67.8054 69.358 66.9775 69.358 66.2795C69.358 65.6235 68.6508 64.8037 67.707 64.3656C67.0061 64.0401 66.7101 64.0275 65.0822 64.2537C62.9997 64.5428 61.5497 64.3737 58.9426 63.5377L57.3674 63.0327L58.0102 63.8268ZM51.9182 63.4151C50.9087 63.8102 46.3173 64.8601 45.0205 64.9925C43.3486 65.1633 40.7714 65.5317 40.2611 65.6728C39.7228 65.8219 39.8359 66.0019 41.022 66.8829C42.9068 68.2833 46.4572 69.2562 47.8256 68.7473C48.1242 68.6363 49.0245 67.9634 49.8267 67.2524C50.6291 66.5411 51.3668 65.9592 51.4664 65.9592C51.6656 65.9592 51.4757 66.6752 50.9285 67.9878C50.6269 68.7117 50.6236 68.7787 50.9069 68.4274C51.3365 67.8951 51.3352 68.1516 50.9045 68.9662C50.7194 69.3166 50.475 69.547 50.3615 69.4785C50.248 69.4097 50.2052 69.4817 50.2667 69.6384C50.3281 69.7949 50.229 70.3044 50.0465 70.7706L49.7147 71.6179L49.8326 70.8705C49.9347 70.2237 49.916 70.1806 49.6931 70.5502C49.5514 70.7851 49.2389 71.1897 48.9986 71.4496L48.5616 71.922L49.6285 72.8696L50.6956 73.8171L50.8248 73.0919C50.896 72.693 51.1075 72.1983 51.295 71.9922C51.5596 71.7018 51.6525 70.9713 51.7091 68.7351C51.7708 66.2906 51.8558 65.7008 52.2674 64.8556C52.5346 64.3075 52.8548 63.7974 52.9794 63.722C53.3383 63.505 53.2427 63.1819 52.8238 63.1967C52.6136 63.2041 52.2063 63.3024 51.9182 63.4151ZM55.8432 63.239C55.8934 63.2695 56.1797 63.4858 56.4799 63.7194L57.0255 64.1441L56.6097 63.6637C56.381 63.3993 56.0946 63.1832 55.973 63.1832C55.8517 63.1832 55.7932 63.2082 55.8432 63.239ZM50.2591 64.4076C49.4187 64.6955 47.8472 65.0265 46.7667 65.1431C43.9719 65.4446 43.0366 65.7501 45.3479 65.6069C47.6695 65.4627 49.5185 65.0664 51.0418 64.3863C52.5274 63.7233 52.2329 63.7312 50.2591 64.4076ZM58.7717 64.0374C59.0118 64.1384 59.4047 64.218 59.6448 64.2146C59.9958 64.2095 59.9744 64.1749 59.5357 64.0374C58.7894 63.8035 58.2156 63.8035 58.7717 64.0374ZM53.3695 65.5475C52.8557 67.723 52.9142 68.4007 53.4419 66.3863C53.6727 65.5054 53.8368 64.5926 53.8065 64.3577C53.7761 64.1228 53.5797 64.6583 53.3695 65.5475ZM56.3496 65.3662C56.6802 65.9207 57.0297 66.8336 57.1262 67.3948L57.3017 68.4148L57.3224 67.5607C57.3457 66.6068 56.7592 65.1663 56.1485 64.678C55.8587 64.4461 55.9141 64.6361 56.3496 65.3662ZM66.4685 64.8289C66.74 64.88 67.1329 64.8781 67.3416 64.8247C67.5502 64.7713 67.328 64.7294 66.8478 64.7318C66.3676 64.7341 66.1969 64.7779 66.4685 64.8289ZM22.6475 65.105C22.8276 65.2189 23.0732 65.312 23.1932 65.312C23.3133 65.312 23.2642 65.2189 23.0841 65.105C22.904 64.9912 22.6585 64.8981 22.5384 64.8981C22.4184 64.8981 22.4675 64.9912 22.6475 65.105ZM50.2453 66.0126L49.6043 66.7066L50.3137 66.0794C50.7037 65.7345 51.023 65.4221 51.023 65.3854C51.023 65.2203 50.843 65.3658 50.2453 66.0126ZM45.944 66.3324C44.6512 66.749 43.6264 67.1221 43.6668 67.1616C43.7764 67.2688 47.3061 66.2716 48.1855 65.8849C49.4561 65.3261 48.4337 65.5302 45.944 66.3324ZM55.7718 66.1727C55.9735 67.1302 55.9685 68.0597 55.7576 68.7351C55.6107 69.2054 55.6338 69.1949 55.9512 68.6482C56.3301 67.9955 56.2675 66.5061 55.8307 65.7837C55.6757 65.527 55.6589 65.6372 55.7718 66.1727ZM63.2771 65.6333C63.462 65.8142 66.6898 66.3901 67.3582 66.3613C67.6777 66.3476 67.3007 66.2156 66.5204 66.0681C64.3992 65.6666 63.1385 65.4977 63.2771 65.6333ZM38.3632 65.9592C38.0631 66.0531 37.9649 66.1398 38.1449 66.1516C38.325 66.1633 39.0863 66.4572 39.8365 66.8044C41.357 67.5082 41.5917 67.5116 40.4368 66.8133C40.0166 66.5592 39.6728 66.2152 39.6728 66.0484C39.6728 65.7202 39.2234 65.6897 38.3632 65.9592ZM58.8256 66.4452C60.1866 67.6075 60.4398 67.7774 60.2935 67.4307C60.1735 67.146 58.3719 65.7456 58.1254 65.7456C58.0599 65.7456 58.3751 66.0604 58.8256 66.4452ZM47.7489 67.0465C47.2087 67.5201 46.9632 67.8122 47.2033 67.6957C47.8151 67.3986 49.214 66.1907 48.9494 66.1877C48.8294 66.1866 48.2892 66.5729 47.7489 67.0465ZM27.9952 66.4939C28.4621 66.6519 31.8964 66.739 31.4863 66.5825C31.2468 66.4911 30.3144 66.417 29.414 66.4181C28.5136 66.4191 27.8752 66.4533 27.9952 66.4939ZM64.2286 67.3452C65.8588 68.3249 66.3021 68.5607 66.3021 68.4484C66.3021 68.2664 63.9887 66.8445 63.4646 66.7044C63.1645 66.6241 63.5083 66.9124 64.2286 67.3452ZM26.3582 67.0269C26.0784 67.2037 26.0862 67.2344 26.4128 67.2372C26.623 67.2389 26.7947 67.1443 26.7947 67.0269C26.7947 66.7663 26.7701 66.7663 26.3582 67.0269ZM32.5373 67.0465L33.1504 67.2844L31.6851 68.0055C30.1018 68.7849 29.753 68.7909 28.2135 68.0638C27.3411 67.6519 27.3409 67.6519 27.8857 68.074C28.1856 68.3064 28.824 68.5961 29.3044 68.7181C30.1079 68.9216 30.3222 68.8712 31.9741 68.0898C32.9623 67.6226 33.9445 67.2389 34.1569 67.2372C34.3695 67.2353 34.6908 67.1334 34.8708 67.0106C35.1101 66.8475 34.9924 66.8298 34.4343 66.9446C33.5662 67.1232 33.2416 67.1221 32.4698 66.9385C32.0176 66.8308 32.0291 66.8494 32.5373 67.0465ZM35.9622 66.9116C35.9622 67.1259 38.8947 67.8795 39.6412 67.8571C40.2844 67.8377 40.1653 67.7809 39.018 67.5596C38.2377 67.4091 37.2561 67.1798 36.8368 67.0497C35.9663 66.78 35.9622 66.7792 35.9622 66.9116ZM28.2135 67.4864C29.1289 67.7458 31.1296 67.783 31.3704 67.5451C31.4933 67.4236 30.7955 67.3382 29.5646 67.3239C28.1033 67.307 27.7364 67.3512 28.2135 67.4864ZM40.2901 69.8374C39.6506 70.4436 39.3236 70.8088 39.5637 70.6486C39.8038 70.4887 40.0985 70.2562 40.2185 70.1323C40.3386 70.0085 40.7636 69.6433 41.163 69.3211C41.5622 68.9989 41.791 68.7351 41.6711 68.7351C41.5513 68.7351 40.9299 69.2312 40.2901 69.8374ZM44.7678 69.7072C44.6962 69.8895 44.1346 70.3211 43.5195 70.6661C42.9044 71.0112 42.5047 71.2944 42.6313 71.2957C42.7579 71.2967 43.2981 71.0257 43.8318 70.6935C44.9114 70.0213 45.557 69.3758 45.1495 69.3758C45.0109 69.3758 44.8391 69.525 44.7678 69.7072ZM38.4723 71.2976C38.3981 71.415 38.4416 71.5111 38.5686 71.5111C38.6956 71.5111 38.7998 71.415 38.7998 71.2976C38.7998 71.1801 38.7565 71.084 38.7035 71.084C38.6505 71.084 38.5466 71.1801 38.4723 71.2976ZM41.1488 71.4485C41.4203 71.4996 41.8132 71.4977 42.0219 71.4443C42.2306 71.3909 42.0084 71.349 41.5282 71.3514C41.048 71.3537 40.8773 71.3975 41.1488 71.4485ZM56.6198 71.9316C56.8304 72.2803 57.036 72.5329 57.0768 72.4929C57.2089 72.3638 56.6344 71.2976 56.4325 71.2976C56.3249 71.2976 56.4091 71.5829 56.6198 71.9316ZM52.7913 72.3653C52.7727 73.0693 53.163 74.8399 53.3016 74.6808C53.3367 74.6405 53.2407 73.9347 53.0883 73.1126C52.8956 72.0736 52.805 71.8457 52.7913 72.3653ZM46.6576 72.8991C46.2507 73.1927 46.0106 73.4295 46.1241 73.4252C46.3433 73.4171 47.7245 72.368 47.5184 72.3663C47.4519 72.3657 47.0644 72.6055 46.6576 72.8991ZM52.1349 73.2194C52.1273 73.7479 52.2072 74.3133 52.3126 74.4761C52.4305 74.6582 52.4641 74.3712 52.4003 73.7287C52.2565 72.2824 52.1515 72.0808 52.1349 73.2194Z" fill="#774A16"/>
<path d="M27.4101 45.288C26.4955 45.288 25.6555 45.1527 24.8901 44.882C24.1341 44.6113 23.5228 44.2147 23.0561 43.692C22.5895 43.16 22.3328 42.5067 22.2861 41.732C22.2675 41.4147 22.3188 41.0647 22.4401 40.682C22.5615 40.2993 22.7295 39.9213 22.9441 39.548C23.1681 39.1653 23.4295 38.8247 23.7281 38.526C24.0361 38.218 24.3628 37.9847 24.7081 37.826C24.7361 37.8073 24.7781 37.7933 24.8341 37.784C24.8995 37.7747 24.9461 37.77 24.9741 37.77C25.0301 37.77 25.0581 37.784 25.0581 37.812C25.0581 37.8587 24.9881 37.9333 24.8481 38.036C24.4561 38.344 24.1341 38.6987 23.8821 39.1C23.6208 39.5013 23.4248 39.9307 23.2941 40.388C23.1635 40.8453 23.0981 41.3073 23.0981 41.774C23.0981 42.3247 23.2148 42.8007 23.4481 43.202C23.6908 43.594 24.0128 43.916 24.4141 44.168C24.8155 44.4293 25.2728 44.6207 25.7861 44.742C26.2995 44.8633 26.8361 44.924 27.3961 44.924C28.0215 44.924 28.6375 44.854 29.2441 44.714C29.8601 44.574 30.4201 44.3733 30.9241 44.112C31.6988 43.7013 32.3101 43.1927 32.7581 42.586C33.2155 41.9793 33.4441 41.3773 33.4441 40.78C33.4441 40.4627 33.3741 40.1593 33.2341 39.87C33.1035 39.5807 32.8888 39.3193 32.5901 39.086C32.3661 38.9087 32.0908 38.7407 31.7641 38.582C31.4468 38.4233 31.1061 38.2693 30.7421 38.12C30.3875 37.9707 30.0375 37.8213 29.6921 37.672C29.3468 37.5133 29.0435 37.3453 28.7821 37.168C28.4088 36.916 28.1335 36.6453 27.9561 36.356C27.7881 36.0667 27.7041 35.7773 27.7041 35.488C27.7041 35.1427 27.8021 34.8067 27.9981 34.48C28.2035 34.1533 28.4788 33.8593 28.8241 33.598C29.1788 33.3273 29.5755 33.1173 30.0141 32.968C30.3968 32.8373 30.8121 32.7347 31.2601 32.66C31.7175 32.5853 32.1655 32.548 32.6041 32.548C32.9681 32.548 33.3135 32.576 33.6401 32.632C33.9761 32.6787 34.2701 32.7673 34.5221 32.898C34.8395 33.0473 35.0821 33.248 35.2501 33.5C35.4181 33.7427 35.5021 33.9993 35.5021 34.27C35.5021 34.6433 35.3341 34.97 34.9981 35.25C34.8768 35.3433 34.7415 35.432 34.5921 35.516C34.4428 35.5907 34.2655 35.656 34.0601 35.712C34.0228 35.7213 33.9808 35.726 33.9341 35.726C33.8221 35.726 33.7661 35.6933 33.7661 35.628C33.7661 35.5907 33.7941 35.5533 33.8501 35.516C33.9155 35.4693 34.0088 35.4413 34.1301 35.432C34.4101 35.3947 34.6201 35.2873 34.7601 35.11C34.9095 34.9327 34.9841 34.7273 34.9841 34.494C34.9841 34.2513 34.9001 34.0133 34.7321 33.78C34.5735 33.5373 34.3261 33.3367 33.9901 33.178C33.6541 33.01 33.2248 32.926 32.7021 32.926C32.4035 32.926 32.0721 32.9587 31.7081 33.024C31.3535 33.0893 30.9661 33.1967 30.5461 33.346C30.0328 33.5233 29.6035 33.7847 29.2581 34.13C28.9221 34.4753 28.7541 34.844 28.7541 35.236C28.7541 35.4787 28.8335 35.726 28.9921 35.978C29.1601 36.2207 29.4261 36.454 29.7901 36.678C30.0981 36.8647 30.4481 37.0513 30.8401 37.238C31.2321 37.4153 31.6288 37.5973 32.0301 37.784C32.4315 37.9613 32.7955 38.1527 33.1221 38.358C33.6355 38.6753 34.0041 39.016 34.2281 39.38C34.4521 39.744 34.5641 40.1173 34.5641 40.5C34.5641 40.948 34.4288 41.4007 34.1581 41.858C33.8968 42.306 33.5515 42.7307 33.1221 43.132C32.6928 43.524 32.2215 43.874 31.7081 44.182C31.1108 44.5367 30.4341 44.8073 29.6781 44.994C28.9315 45.19 28.1755 45.288 27.4101 45.288ZM37.5076 44.546C37.3023 44.546 37.0923 44.532 36.8776 44.504C36.2896 44.4293 35.8556 44.2567 35.5756 43.986C35.305 43.7153 35.1696 43.4213 35.1696 43.104C35.1696 42.7587 35.3236 42.446 35.6316 42.166C35.9396 41.8767 36.3736 41.732 36.9336 41.732C37.307 41.732 37.713 41.8067 38.1516 41.956C38.3943 42.04 38.6836 42.18 39.0196 42.376C39.3556 42.572 39.743 42.7773 40.1816 42.992C40.6483 42.544 41.073 41.9887 41.4556 41.326C41.8476 40.6633 42.235 39.954 42.6176 39.198C43.0096 38.4327 43.4296 37.6673 43.8776 36.902C44.335 36.1367 44.8623 35.418 45.4596 34.746L46.2716 33.836C45.9263 33.78 45.567 33.738 45.1936 33.71C44.8203 33.6727 44.433 33.654 44.0316 33.654C43.5276 33.654 43.0096 33.682 42.4776 33.738C41.9456 33.7847 41.4136 33.864 40.8816 33.976C40.0043 34.1627 39.2623 34.4613 38.6556 34.872C38.049 35.2827 37.587 35.7307 37.2696 36.216C36.9616 36.692 36.8076 37.14 36.8076 37.56C36.8076 37.8493 36.887 38.1107 37.0456 38.344C37.2136 38.568 37.461 38.7313 37.7876 38.834C37.993 38.8993 38.203 38.932 38.4176 38.932C38.735 38.932 39.015 38.8667 39.2576 38.736C39.5003 38.6053 39.7056 38.4467 39.8736 38.26C40.0416 38.064 40.163 37.8773 40.2376 37.7C40.3216 37.5227 40.359 37.392 40.3496 37.308C40.3496 37.2427 40.3963 37.21 40.4896 37.21C40.583 37.21 40.6296 37.28 40.6296 37.42V37.434C40.6296 37.8167 40.513 38.148 40.2796 38.428C40.0463 38.708 39.7523 38.9227 39.3976 39.072C39.0523 39.2213 38.7023 39.296 38.3476 39.296C38.1236 39.296 37.8903 39.2587 37.6476 39.184C37.1436 39.0067 36.7703 38.75 36.5276 38.414C36.285 38.0687 36.1636 37.6907 36.1636 37.28C36.1636 36.8973 36.2663 36.5053 36.4716 36.104C36.6863 35.6933 36.999 35.306 37.4096 34.942C37.8203 34.5687 38.329 34.2467 38.9356 33.976C39.5516 33.7053 40.261 33.514 41.0636 33.402C41.493 33.3367 41.9176 33.29 42.3376 33.262C42.7576 33.234 43.1636 33.22 43.5556 33.22C44.097 33.22 44.6243 33.248 45.1376 33.304C45.6603 33.3507 46.1503 33.4253 46.6076 33.528C46.7383 33.416 46.869 33.318 46.9996 33.234C47.1396 33.15 47.2656 33.0847 47.3776 33.038C47.443 33.01 47.499 32.9913 47.5456 32.982C47.5923 32.9727 47.6296 32.968 47.6576 32.968C47.7136 32.968 47.7416 32.9867 47.7416 33.024C47.7416 33.0707 47.6716 33.1453 47.5316 33.248C47.4383 33.3133 47.3496 33.388 47.2656 33.472C47.1816 33.5467 47.1303 33.6027 47.1116 33.64C48.0636 33.8827 48.8336 34.2187 49.4216 34.648C50.019 35.068 50.3176 35.5673 50.3176 36.146C50.3176 36.4447 50.2196 36.7713 50.0236 37.126C49.8183 37.4713 49.5336 37.7513 49.1696 37.966C48.8056 38.1713 48.4183 38.3253 48.0076 38.428C47.597 38.5213 47.2143 38.5773 46.8596 38.596C47.1676 38.6893 47.5036 38.8293 47.8676 39.016C48.241 39.1933 48.5816 39.4127 48.8896 39.674C49.207 39.9353 49.417 40.2433 49.5196 40.598C49.585 40.822 49.6176 41.0507 49.6176 41.284C49.6176 41.7787 49.473 42.2267 49.1836 42.628C48.9036 43.0293 48.5256 43.3747 48.0496 43.664C47.583 43.944 47.0696 44.1587 46.5096 44.308C45.9496 44.4667 45.3943 44.546 44.8436 44.546C44.6383 44.546 44.4283 44.532 44.2136 44.504C43.3176 44.392 42.5756 44.252 41.9876 44.084C41.409 43.916 40.9003 43.7293 40.4616 43.524C39.5563 44.2053 38.5716 44.546 37.5076 44.546ZM44.6476 44.14C45.2263 44.14 45.7536 44.0513 46.2296 43.874C46.7056 43.6967 47.1163 43.4633 47.4616 43.174C47.8163 42.8847 48.087 42.5627 48.2736 42.208C48.4696 41.8533 48.5676 41.5033 48.5676 41.158C48.5676 40.8313 48.4696 40.514 48.2736 40.206C48.0776 39.898 47.7696 39.6413 47.3496 39.436C46.9856 39.2587 46.6076 39.114 46.2156 39.002C45.833 38.8807 45.5016 38.778 45.2216 38.694C44.9416 38.6007 44.7783 38.5073 44.7316 38.414C44.7316 38.302 44.7783 38.2273 44.8716 38.19C44.9743 38.1433 45.105 38.12 45.2636 38.12C45.4503 38.12 45.6743 38.134 45.9356 38.162C46.197 38.19 46.4723 38.204 46.7616 38.204C47.0603 38.204 47.3636 38.1387 47.6716 38.008C47.989 37.868 48.2783 37.686 48.5396 37.462C48.801 37.2287 49.011 36.9767 49.1696 36.706C49.3376 36.426 49.4216 36.1413 49.4216 35.852C49.4216 35.5907 49.333 35.334 49.1556 35.082C48.9783 34.83 48.6843 34.6107 48.2736 34.424C47.863 34.2373 47.4196 34.088 46.9436 33.976C46.477 34.62 46.0103 35.3433 45.5436 36.146C45.077 36.9393 44.6103 37.7467 44.1436 38.568C43.677 39.38 43.2056 40.15 42.7296 40.878C42.2536 41.606 41.7776 42.2313 41.3016 42.754C41.1896 42.8753 41.101 42.9687 41.0356 43.034C40.9703 43.09 40.8816 43.1693 40.7696 43.272C41.2083 43.4493 41.7076 43.6173 42.2676 43.776C42.8276 43.9347 43.467 44.0467 44.1856 44.112C44.2603 44.1213 44.335 44.126 44.4096 44.126C44.4936 44.1353 44.573 44.14 44.6476 44.14ZM37.2276 44.112C37.7503 44.14 38.2263 44.0793 38.6556 43.93C39.0943 43.7713 39.5003 43.552 39.8736 43.272C39.547 43.1133 39.211 42.95 38.8656 42.782C38.5296 42.6047 38.1703 42.446 37.7876 42.306C37.517 42.2127 37.2696 42.166 37.0456 42.166C36.7003 42.166 36.439 42.2593 36.2616 42.446C36.0843 42.6233 35.9956 42.8287 35.9956 43.062C35.9956 43.3047 36.0983 43.538 36.3036 43.762C36.509 43.9767 36.817 44.0933 37.2276 44.112Z" fill="#774A16"/>
</svg>
